<svg width="52" height="52" viewBox="0 0 52 52" fill="none" xmlns="http://www.w3.org/2000/svg">
	<path opacity="0.3" d="M45.5 41.1654L15.1666 32.4987V19.4987L45.5 10.832V41.1654Z" fill="#F7D74E" />
	<path d="M4.33337 19.5H8.66671V32.5H4.33337V19.5ZM43.3334 6.5L41.1667 9.28633L13 19.5V32.5L41.1667 42.7137L43.3334 45.5H47.6667V6.5H43.3334ZM43.3334 38.8895L42.6444 38.6403L17.3334 29.4623V22.5377L42.6444 13.3597L43.3334 13.1083V38.8895Z" fill="#F7D74E" />
	<path d="M28.8015 34.7802L19.3635 31.4414L17.6951 36.1604C17.2336 37.4626 17.9161 38.8926 19.2205 39.3541L23.9395 41.0224C25.2416 41.4839 26.6716 40.8014 27.1331 39.4971L28.8015 34.7802Z" fill="#F7D74E" />
</svg>
