<svg width="52" height="52" viewBox="0 0 52 52" fill="none" xmlns="http://www.w3.org/2000/svg">
	<path d="M49.6665 42.812C49.7705 42.2769 49.8333 41.7287 49.8333 41.1654C49.8333 40.602 49.7705 40.0539 49.6665 39.5187L51.4128 38.2209C51.636 38.054 51.701 37.7464 51.5601 37.5059L49.5321 33.9937C49.3935 33.751 49.0945 33.6535 48.8388 33.764L46.8108 34.6415C45.9896 33.9309 45.0406 33.3762 43.992 33.0122L43.7385 30.8195C43.7081 30.54 43.4741 30.332 43.1946 30.332H39.1386C38.8591 30.332 38.6251 30.54 38.5926 30.8174L38.3391 33.01C37.2905 33.374 36.3436 33.9265 35.5203 34.6394L33.4923 33.7619C33.2366 33.6514 32.9376 33.7489 32.799 33.9915L30.771 37.5037C30.6323 37.7464 30.6951 38.054 30.9183 38.2187L32.6646 39.5165C32.5628 40.0539 32.5 40.602 32.5 41.1654C32.5 41.7287 32.5628 42.2769 32.6668 42.812L30.9205 44.1099C30.6973 44.2767 30.6323 44.5844 30.7731 44.8249L32.8011 48.337C32.9398 48.5797 33.2388 48.6772 33.4945 48.5667L35.5225 47.6892C36.3436 48.3999 37.2926 48.9545 38.3413 49.3185L38.5948 51.5112C38.6251 51.7907 38.8591 51.9987 39.1386 51.9987H43.1946C43.4741 51.9987 43.7081 51.7907 43.7406 51.5134L43.9941 49.3207C45.0428 48.9567 45.9896 48.4042 46.813 47.6914L48.841 48.5689C49.0966 48.6794 49.3956 48.5797 49.5343 48.3392L51.5623 44.827C51.701 44.5844 51.6381 44.2767 51.415 44.112L49.6665 42.812ZM41.1666 44.957C39.0736 44.957 37.375 43.2584 37.375 41.1654C37.375 39.0702 39.0736 37.3737 41.1666 37.3737C43.2596 37.3737 44.9583 39.0702 44.9583 41.1654C44.9583 43.2584 43.2596 44.957 41.1666 44.957Z" fill="#F7D74E" />
	<path d="M27.0183 46.9915C26.3553 45.8432 26.2166 44.5324 26.5265 43.332H13V34.6654H27.4083L29.0463 31.8249C29.3995 31.216 29.874 30.722 30.4135 30.332H13V21.6654H39V26.0095C39.0476 26.0095 39.0931 25.9987 39.1386 25.9987H43.1925C43.2401 25.9987 43.2856 26.0095 43.3311 26.0095V8.66536C43.3311 6.2712 41.392 4.33203 38.9978 4.33203H13C10.6058 4.33203 8.66663 6.2712 8.66663 8.66536V43.332C8.66663 45.7262 10.6058 47.6654 13 47.6654H27.4061L27.0183 46.9915ZM13 8.66536H39V17.332H13V8.66536Z" fill="#F7D74E" />
	<path opacity="0.3" d="M40.625 41.1667C40.625 41.4657 40.8959 41.6152 41.1667 41.6152V40.625C40.8677 40.625 40.625 40.8677 40.625 41.1667ZM27.7269 41.1688C26.2384 39.637 25.909 37.2537 27.0227 35.3362L29.0464 31.8283C30.1514 29.9217 32.3657 29.0182 34.4479 29.5273C35.0372 27.4733 36.9309 26 39.1387 26H41.1667V6.5H10.8334V45.5H26.455C26.1474 43.953 26.6089 42.328 27.7269 41.1688Z" fill="#F7D74E" />
</svg>
