<svg width="28" height="29" viewBox="0 0 28 29" fill="none" xmlns="http://www.w3.org/2000/svg">
	<g clip-path="url(#clip0_701_429)">
		<path d="M16.4512 22.7477C16.3777 22.3417 16.3333 21.9263 16.3333 21.4993C16.3333 20.6804 16.4815 19.8975 16.7417 19.166H4.66667V7.49935H23.3333L23.3345 14.4993C24.1302 14.4993 24.9107 14.6428 25.6667 14.9147V7.49935C25.6667 6.21252 24.6202 5.16602 23.3333 5.16602H4.66667C3.37983 5.16602 2.33333 6.21252 2.33333 7.49935V19.166C2.33333 20.4529 3.37983 21.4993 4.66667 21.4993H0V23.8327H15.3673L16.4512 22.7477ZM16.6752 25.8242L19.6093 22.89L21.9427 25.2234L19.0085 28.1575C18.5523 28.6137 17.8138 28.6137 17.3588 28.1575L16.6752 27.4739C16.219 27.0189 16.219 26.2804 16.6752 25.8242Z" fill="#111828" />
		<path d="M24.5 22.6673L22.1666 20.334L25.2466 17.254C24.6621 16.9892 24.017 16.834 23.3333 16.834C20.7561 16.834 18.6666 18.9235 18.6666 21.5007C18.6666 24.0778 20.7561 26.1673 23.3333 26.1673C25.9105 26.1673 28 24.0778 28 21.5007C28 20.817 27.8448 20.1718 27.58 19.5873L24.5 22.6673Z" fill="#111828" />
		<path opacity="0.3" d="M23.3333 14.5007C23.7312 14.5007 24.1197 14.5415 24.5 14.6057V6.33398H3.5V20.334H16.4383C16.9948 17.0242 19.866 14.5007 23.3333 14.5007Z" fill="#111828" />
	</g>
	<defs>
		<clipPath id="clip0_701_429">
			<rect width="28" height="28" fill="white" transform="translate(0 0.5)" />
		</clipPath>
	</defs>
</svg>
