<svg width="28" height="29" viewBox="0 0 28 29" fill="none" xmlns="http://www.w3.org/2000/svg">
	<path opacity="0.3" d="M22.1666 13.334C21.9578 13.334 21.7583 13.369 21.5565 13.3958C21.2881 9.45132 18.0121 6.33398 14 6.33398C10.8453 6.33398 8.14213 8.26015 6.99996 11.0007C3.77879 11.0007 1.16663 13.6128 1.16663 16.834C1.16663 20.0552 3.77879 22.6673 6.99996 22.6673C7.40013 22.6673 22.1666 22.6673 22.1666 22.6673C24.7438 22.6673 26.8333 20.5778 26.8333 18.0007C26.8333 15.4235 24.7438 13.334 22.1666 13.334Z" fill="#111828" />
	<path d="M22.5808 12.208C21.7863 8.19352 18.2478 5.16602 14 5.16602C10.626 5.16602 7.7035 7.07818 6.244 9.87468C2.7335 10.2527 0 13.223 0 16.8327C0 20.699 3.13367 23.8327 7 23.8327H22.1667C25.3878 23.8327 28 21.2205 28 17.9993C28 14.9193 25.606 12.4238 22.5808 12.208ZM22.1667 21.4993H7C4.42633 21.4993 2.33333 19.4064 2.33333 16.8327C2.33333 14.4433 4.12183 12.4495 6.4925 12.1952L7.73383 12.061L8.31133 10.9538C9.42433 8.82352 11.6048 7.49935 14 7.49935C17.0532 7.49935 19.6992 9.67052 20.2918 12.6607L20.6383 14.4083L22.4152 14.5355C24.2387 14.665 25.6667 16.1875 25.6667 17.9993C25.6667 19.929 24.0963 21.4993 22.1667 21.4993Z" fill="#111828" />
</svg>
