<svg width="28" height="29" viewBox="0 0 28 29" fill="none" xmlns="http://www.w3.org/2000/svg">
	<path d="M23.1 12.634C23.2167 13.2173 23.3334 13.9173 23.3334 14.5007C23.3334 19.634 19.1334 23.834 14 23.834C8.86671 23.834 4.66671 19.634 4.66671 14.5007C4.66671 9.36732 8.86671 5.16732 14 5.16732C15.8667 5.16732 17.7334 5.75065 19.1334 6.68398L20.7667 5.05065C18.9 3.65065 16.5667 2.83398 14 2.83398C7.58337 2.83398 2.33337 8.08398 2.33337 14.5007C2.33337 20.9173 7.58337 26.1673 14 26.1673C20.4167 26.1673 25.6667 20.9173 25.6667 14.5007C25.6667 13.2173 25.4334 11.934 25.0834 10.7673L23.1 12.634Z" fill="#111828" />
	<path d="M12.8333 19.6329L7.34998 14.1496L8.98331 12.5163L12.8333 16.3663L24.85 4.34961L26.4833 5.98294L12.8333 19.6329Z" fill="#111828" />
	<path opacity="0.3" d="M14 2.83398C10.9058 2.83398 7.93839 4.06315 5.75046 6.25107C3.56254 8.439 2.33337 11.4065 2.33337 14.5007C2.33337 17.5948 3.56254 20.5623 5.75046 22.7502C7.93839 24.9382 10.9058 26.1673 14 26.1673C17.0942 26.1673 20.0617 24.9382 22.2496 22.7502C24.4375 20.5623 25.6667 17.5948 25.6667 14.5007C25.6667 11.4065 24.4375 8.439 22.2496 6.25107C20.0617 4.06315 17.0942 2.83398 14 2.83398Z" fill="#111828" />
</svg>
