<svg width="60" height="60" viewBox="0 0 60 60" fill="none" xmlns="http://www.w3.org/2000/svg">
	<g clip-path="url(#clip0_472_6556)">
		<path d="M35.2525 47.675C35.095 46.805 35 45.915 35 45C35 43.245 35.3175 41.5675 35.875 40H10V15H50L50.0025 30C51.7075 30 53.38 30.3075 55 30.89V15C55 12.2425 52.7575 10 50 10H10C7.2425 10 5 12.2425 5 15V40C5 42.7575 7.2425 45 10 45H0V50H32.93L35.2525 47.675ZM35.7325 54.2675L42.02 47.98L47.02 52.98L40.7325 59.2675C39.755 60.245 38.1725 60.245 37.1975 59.2675L35.7325 57.8025C34.755 56.8275 34.755 55.245 35.7325 54.2675Z" fill="#5621CB" />
		<path d="M52.5 47.5L47.5 42.5L54.1 35.9C52.8475 35.3325 51.465 35 50 35C44.4775 35 40 39.4775 40 45C40 50.5225 44.4775 55 50 55C55.5225 55 60 50.5225 60 45C60 43.535 59.6675 42.1525 59.1 40.9L52.5 47.5Z" fill="#5621CB" />
		<path opacity="0.3" d="M50 30C50.8525 30 51.685 30.0875 52.5 30.225V12.5H7.5V42.5H35.225C36.4175 35.4075 42.57 30 50 30Z" fill="#5621CB" />
	</g>
	<defs>
		<clipPath id="clip0_472_6556">
			<rect width="60" height="60" fill="white" />
		</clipPath>
	</defs>
</svg>
