<svg width="52" height="52" viewBox="0 0 52 52" fill="none" xmlns="http://www.w3.org/2000/svg">
	<path d="M26 49.832C21.2334 49.832 17.3334 45.932 17.3334 41.1654C17.3334 33.7987 24.2667 26.8654 24.4834 26.6487L27.3 23.832L27.95 27.9487C28.3834 30.7654 29.9 32.7154 31.4167 34.4487C32.9334 36.3987 34.6667 38.5654 34.45 41.5987C34.45 46.1487 30.55 49.832 26 49.832ZM25.1334 32.4987C23.4 34.6654 21.6667 37.9154 21.6667 41.1654C21.6667 43.5487 23.6167 45.4987 26 45.4987C28.3834 45.4987 30.1167 43.5487 30.3334 40.9487C30.3334 39.6487 29.6834 38.5654 28.1667 36.832C27.3 35.7487 26 34.232 25.1334 32.4987Z" fill="#70D495" />
	<path opacity="0.3" d="M32.5 20.3667C28.1667 13 26 6.5 26 6.5C26 6.5 10.8334 21.6667 10.8334 32.5C10.8334 40.95 17.55 47.6667 26 47.6667C22.3167 47.6667 19.5 44.85 19.5 41.1667C19.5 34.6667 26 28.1667 26 28.1667C27.3 34.8833 32.7167 36.8333 32.5 41.1667C32.2834 44.85 29.6834 47.6667 26 47.6667C34.45 47.6667 41.1667 40.95 41.1667 32.5C41.1667 26 36.8334 19.5 34.6667 15.1667C33.5834 16.4667 32.7167 19.5 32.5 20.3667ZM41.1667 32.5C41.1667 32.9333 41.1667 32.0667 41.1667 32.5V32.5Z" fill="#70D495" />
	<path d="M26 49.8349C16.4666 49.8349 8.66663 42.0349 8.66663 32.5016C8.66663 20.8016 23.8333 5.6349 24.4833 4.9849L26.8666 2.60156L27.95 5.85156C27.95 5.85156 29.25 9.96823 32.0666 15.1682C32.2833 14.7349 32.7166 14.0849 32.9333 13.8682L35.1 11.2682L36.6166 14.3016C37.05 15.1682 37.4833 16.0349 37.9166 16.9016C39.8666 20.5849 42.4666 25.3516 43.1166 30.3349V30.7682C43.1166 31.2016 43.1166 31.8516 43.3333 32.2849L43.1166 34.6682C42.25 43.1182 34.8833 49.8349 26 49.8349ZM25.1333 10.6182C20.3666 15.8182 13 25.5682 13 32.5016C13 39.6516 18.85 45.5016 26 45.5016C33.15 45.5016 39 39.6516 39 32.5016C39 28.1682 36.8333 23.8349 34.8833 20.1516C34.6666 20.3682 34.6666 20.5849 34.6666 20.8016L33.5833 26.6516L30.55 21.6682C28.1666 17.1182 26.2166 13.2182 25.1333 10.6182Z" fill="#70D495" />
</svg>
