<svg width="52" height="52" viewBox="0 0 52 52" fill="none" xmlns="http://www.w3.org/2000/svg">
	<path opacity="0.3" d="M26 8.63281C25.1379 8.63281 24.2842 8.80262 23.4877 9.13254C22.6912 9.46247 21.9674 9.94604 21.3578 10.5557C20.7482 11.1653 20.2646 11.889 19.9347 12.6855C19.6048 13.482 19.435 14.3357 19.435 15.1978C19.435 16.0599 19.6048 16.9136 19.9347 17.7101C20.2646 18.5066 20.7482 19.2304 21.3578 19.84C21.9674 20.4496 22.6912 20.9332 23.4877 21.2631C24.2842 21.593 25.1379 21.7628 26 21.7628C26.8621 21.7628 27.7158 21.593 28.5123 21.2631C29.3088 20.9332 30.0325 20.4496 30.6421 19.84C31.2518 19.2304 31.7353 18.5066 32.0653 17.7101C32.3952 16.9136 32.565 16.0599 32.565 15.1978C32.565 14.3357 32.3952 13.482 32.0653 12.6855C31.7353 11.889 31.2518 11.1653 30.6421 10.5557C30.0325 9.94604 29.3088 9.46247 28.5123 9.13254C27.7158 8.80262 26.8621 8.63281 26 8.63281V8.63281ZM43.5478 42.7058H8.45215V41.109C8.45215 38.3335 17.7471 33.127 26 33.127C34.2528 33.127 43.5478 38.3335 43.5478 41.109V42.7058Z" fill="#70D495" />
	<path d="M28.1667 7.58636L26 4.33203C26 4.33203 17.3333 6.4987 17.3333 15.1654C17.3333 19.9515 21.2138 23.832 26 23.832C30.7862 23.832 34.6667 19.9515 34.6667 15.1654C34.6667 9.43887 29.9368 7.58636 28.1667 7.58636ZM26 19.4987C23.6102 19.4987 21.6667 17.5552 21.6667 15.1654C21.6667 12.4787 23.062 10.8104 24.4443 9.81587L24.5592 9.9892L25.8462 11.9219H28.0735C28.3573 11.9739 30.3333 12.4505 30.3333 15.1654C30.3333 17.5552 28.3898 19.4987 26 19.4987ZM26 30.332C19.1945 30.332 6.5 33.6817 6.5 40.082V45.4987H45.5V40.082C45.5 33.6817 32.8055 30.332 26 30.332ZM41.1667 41.1654H10.8333V40.082C10.8333 38.1992 18.8673 34.6654 26 34.6654C33.1327 34.6654 41.1667 38.1992 41.1667 40.082V41.1654Z" fill="#70D495" />
</svg>
