<svg width="68" height="68" viewBox="0 0 68 68" fill="none" xmlns="http://www.w3.org/2000/svg">
	<path d="M31.912 17.105L22.9559 14.5295C20.9414 17.4308 19.1932 20.9555 17.9267 24.8768L28.7812 27.9963L31.912 17.105ZM45.4185 31.1668H53.7287C53.8959 28.4185 53.621 25.7042 52.8815 23.1343L46.5122 21.304C46.566 24.3895 46.1864 27.7272 45.4185 31.1668ZM16.4165 31.1668H27.8689L27.9964 30.7192L17.1419 27.5997C16.8387 28.801 16.6092 29.9882 16.4165 31.1668ZM7.81454 39.6583C8.65888 41.5227 9.74404 43.268 11.0332 44.8632L12.3252 40.956L7.81454 39.6583ZM31.504 28.7812L39.8057 31.1668H42.5144C43.3899 27.4297 43.7469 23.7718 43.5882 20.4625L34.632 17.887L31.504 28.7812ZM51.6859 19.842C50.0425 16.2068 47.4982 13.0023 44.2625 10.5543C45.3052 12.7615 46.0192 15.3738 46.3309 18.3035L51.6859 19.842ZM37.7175 7.15718L35.4169 15.1642L43.302 17.4308C42.5654 12.5263 40.6302 8.73534 37.7175 7.15718ZM20.029 13.6908L13.6625 11.8605C10.7442 14.4785 8.44354 17.8332 7.06371 21.7545L15.2039 24.0948C16.4505 20.182 18.1024 16.6602 20.029 13.6908ZM12.9854 38.1963C12.9287 34.6575 13.399 30.7957 14.4219 26.8177L6.28171 24.4773C5.36654 28.5318 5.53654 32.5977 6.61604 36.366L12.9854 38.1963ZM24.8089 12.1155L32.694 14.3822L34.9947 6.37234C31.691 6.16268 28.0389 8.35001 24.8089 12.1155ZM27.6479 5.77734C23.6047 6.13434 19.7485 7.49718 16.425 9.70434L21.7829 11.2457C23.599 8.92801 25.5909 7.09484 27.6479 5.77734Z" fill="#4C6EE6" />
	<path fill-rule="evenodd" clip-rule="evenodd" d="M38.6693 36.832H46.3051L38.9979 62.332H29.3816L24.2051 45.9667L19.5613 62.332H11.2256L19.6576 36.832H28.3531L33.3766 53.8434L38.6693 36.832ZM53.0003 55.6794L57.9557 36.832H50.1244L42.8173 62.332H60.5851L62.3333 55.6794H53.0003Z" fill="#4C6EE6" />
</svg>
