<svg width="100" height="100" viewBox="0 0 100 100" fill="none" xmlns="http://www.w3.org/2000/svg">
	<path d="M68.7502 12.5C56.6877 12.5 50.0002 21.2083 50.0002 21.2083C50.0002 21.2083 43.3127 12.5 31.2502 12.5C18.5918 12.5 8.3335 22.7583 8.3335 35.4167C8.3335 52.7958 28.8002 69.6375 34.5043 74.9583C41.0752 81.0833 50.0002 88.9583 50.0002 88.9583C50.0002 88.9583 58.9252 81.0833 65.496 74.9583C71.2002 69.6375 91.6668 52.7958 91.6668 35.4167C91.6668 22.7583 81.4085 12.5 68.7502 12.5ZM61.7127 67.125C60.9752 67.7917 60.3335 68.3708 59.8127 68.8583C56.6835 71.775 52.9835 75.1208 50.0002 77.7958C47.0168 75.1208 43.3127 71.7708 40.1877 68.8583C39.6627 68.3708 39.021 67.7875 38.2877 67.125C32.371 61.7792 16.6668 47.5792 16.6668 35.4167C16.6668 27.375 23.2085 20.8333 31.2502 20.8333C38.8627 20.8333 43.2752 26.1458 43.3918 26.2833L50.0002 33.3333L56.6085 26.2833C56.6502 26.2292 61.1377 20.8333 68.7502 20.8333C76.7918 20.8333 83.3335 27.375 83.3335 35.4167C83.3335 47.5792 67.6293 61.7792 61.7127 67.125Z" fill="url(#paint0_linear_360_18819)" />
	<path opacity="0.3" d="M63.1792 69.3529C62.35 70.1029 61.6292 70.7529 61.0417 71.3029C57.525 74.582 53.3583 78.3487 50 81.357C46.6458 78.3487 42.4792 74.582 38.9583 71.3029C38.3708 70.7529 37.6458 70.0987 36.8208 69.3529C30.1708 63.3362 12.5 47.357 12.5 33.6779C12.5 24.632 19.8583 17.2695 28.9042 17.2695C37.4667 17.2695 42.4333 23.2445 42.5625 23.4029L50 31.3362L57.4333 23.407C57.4792 23.3445 62.5292 17.2737 71.0917 17.2737C80.1417 17.2737 87.5 24.632 87.5 33.6779C87.5 47.357 69.8292 63.3362 63.1792 69.3529Z" fill="url(#paint1_linear_360_18819)" />
	<defs>
		<linearGradient id="paint0_linear_360_18819" x1="8.33349" y1="88.9583" x2="67.638" y2="-2.99686" gradientUnits="userSpaceOnUse">
			<stop stop-color="#1033B1" />
			<stop offset="1" stop-color="#1A6DFF" />
		</linearGradient>
		<linearGradient id="paint1_linear_360_18819" x1="12.5" y1="81.357" x2="60.6725" y2="1.15572" gradientUnits="userSpaceOnUse">
			<stop stop-color="#1033B1" />
			<stop offset="1" stop-color="#1A6DFF" />
		</linearGradient>
	</defs>
</svg>
