<svg width="52" height="52" viewBox="0 0 52 52" fill="none" xmlns="http://www.w3.org/2000/svg">
	<path opacity="0.3" d="M8.66667 26H19.5C20.696 26 21.6667 25.0293 21.6667 23.8333V8.66667C21.6667 7.47067 20.696 6.5 19.5 6.5H8.66667C7.47067 6.5 6.5 7.47067 6.5 8.66667V23.8333C6.5 25.0293 7.47067 26 8.66667 26Z" fill="#EC8E65" />
	<path opacity="0.3" d="M32.5 17.3333H43.3334C44.5294 17.3333 45.5 16.3627 45.5 15.1667V8.66667C45.5 7.47067 44.5294 6.5 43.3334 6.5H32.5C31.304 6.5 30.3334 7.47067 30.3334 8.66667V15.1667C30.3334 16.3627 31.304 17.3333 32.5 17.3333Z" fill="#EC8E65" />
	<path opacity="0.3" d="M8.66667 45.5013H19.5C20.696 45.5013 21.6667 44.5306 21.6667 43.3346V36.8346C21.6667 35.6386 20.696 34.668 19.5 34.668H8.66667C7.47067 34.668 6.5 35.6386 6.5 36.8346V43.3346C6.5 44.5306 7.47067 45.5013 8.66667 45.5013Z" fill="#EC8E65" />
	<path opacity="0.3" d="M32.5 45.5H43.3334C44.5294 45.5 45.5 44.5293 45.5 43.3333V28.1667C45.5 26.9707 44.5294 26 43.3334 26H32.5C31.304 26 30.3334 26.9707 30.3334 28.1667V43.3333C30.3334 44.5293 31.304 45.5 32.5 45.5Z" fill="#EC8E65" />
	<path d="M19.5 28.1654H8.66671C6.27687 28.1654 4.33337 26.2219 4.33337 23.832V8.66536C4.33337 6.27553 6.27687 4.33203 8.66671 4.33203H19.5C21.8899 4.33203 23.8334 6.27553 23.8334 8.66536V23.832C23.8334 26.2219 21.8899 28.1654 19.5 28.1654ZM8.66671 8.66536V23.832H19.5V8.66536H8.66671Z" fill="#EC8E65" />
	<path d="M43.3333 19.4987H32.5C30.1101 19.4987 28.1666 17.5552 28.1666 15.1654V8.66536C28.1666 6.27553 30.1101 4.33203 32.5 4.33203H43.3333C45.7231 4.33203 47.6666 6.27553 47.6666 8.66536V15.1654C47.6666 17.5552 45.7231 19.4987 43.3333 19.4987ZM32.5 8.66536V15.1654H43.3333V8.66536H32.5Z" fill="#EC8E65" />
	<path d="M19.5 47.6667H8.66671C6.27687 47.6667 4.33337 45.7232 4.33337 43.3333V36.8333C4.33337 34.4435 6.27687 32.5 8.66671 32.5H19.5C21.8899 32.5 23.8334 34.4435 23.8334 36.8333V43.3333C23.8334 45.7232 21.8899 47.6667 19.5 47.6667ZM8.66671 36.8333V43.3333H19.5V36.8333H8.66671Z" fill="#EC8E65" />
	<path d="M43.3333 47.6654H32.5C30.1101 47.6654 28.1666 45.7219 28.1666 43.332V28.1654C28.1666 25.7755 30.1101 23.832 32.5 23.832H43.3333C45.7231 23.832 47.6666 25.7755 47.6666 28.1654V43.332C47.6666 45.7219 45.7231 47.6654 43.3333 47.6654ZM32.5 28.1654V43.332H43.3333V28.1654H32.5Z" fill="#EC8E65" />
</svg>
