<svg width="28" height="28" viewBox="0 0 28 28" fill="none" xmlns="http://www.w3.org/2000/svg">
	<path opacity="0.3" d="M22.1666 12.834C21.9578 12.834 21.7583 12.869 21.5565 12.8958C21.2881 8.95132 18.0121 5.83398 14 5.83398C10.8453 5.83398 8.14213 7.76015 6.99996 10.5007C3.77879 10.5007 1.16663 13.1128 1.16663 16.334C1.16663 19.5552 3.77879 22.1673 6.99996 22.1673C7.40013 22.1673 22.1666 22.1673 22.1666 22.1673C24.7438 22.1673 26.8333 20.0778 26.8333 17.5007C26.8333 14.9235 24.7438 12.834 22.1666 12.834Z" fill="#111828" />
	<path d="M22.5808 11.708C21.7863 7.69352 18.2478 4.66602 14 4.66602C10.626 4.66602 7.7035 6.57818 6.244 9.37468C2.7335 9.75268 0 12.723 0 16.3327C0 20.199 3.13367 23.3327 7 23.3327H22.1667C25.3878 23.3327 28 20.7205 28 17.4993C28 14.4193 25.606 11.9238 22.5808 11.708ZM22.1667 20.9993H7C4.42633 20.9993 2.33333 18.9064 2.33333 16.3327C2.33333 13.9433 4.12183 11.9495 6.4925 11.6952L7.73383 11.561L8.31133 10.4538C9.42433 8.32352 11.6048 6.99935 14 6.99935C17.0532 6.99935 19.6992 9.17052 20.2918 12.1607L20.6383 13.9083L22.4152 14.0355C24.2387 14.165 25.6667 15.6875 25.6667 17.4993C25.6667 19.429 24.0963 20.9993 22.1667 20.9993Z" fill="#111828" />
</svg>
