<svg width="52" height="52" viewBox="0 0 52 52" fill="none" xmlns="http://www.w3.org/2000/svg">
	<path d="M15.1665 23.8346H19.4998V28.168H15.1665V23.8346ZM8.6665 15.168H43.3332V19.5013H8.6665V15.168ZM15.1665 32.5013H19.4998V36.8346H15.1665V32.5013ZM38.9998 26.0013C31.8498 26.0013 25.9998 31.8513 25.9998 39.0013C25.9998 46.1513 31.8498 52.0013 38.9998 52.0013C46.1498 52.0013 51.9998 46.1513 51.9998 39.0013C51.9998 31.8513 46.1498 26.0013 38.9998 26.0013ZM38.9998 47.668C34.2332 47.668 30.3332 43.768 30.3332 39.0013C30.3332 34.2346 34.2332 30.3346 38.9998 30.3346C43.7665 30.3346 47.6665 34.2346 47.6665 39.0013C47.6665 43.768 43.7665 47.668 38.9998 47.668ZM41.004 43.846L36.4605 39.3025L39.9272 32.7548L42.798 34.2758L40.4558 38.7001L43.3028 41.5471L41.004 43.846Z" fill="#EC8E65" />
	<path d="M21.8162 41.1667H10.8333V10.8333H41.1667V21.8162C42.6812 22.0047 44.1328 22.3838 45.5 22.9385V10.8333C45.5 8.43917 43.5608 6.5 41.1667 6.5H10.8333C8.43917 6.5 6.5 8.43917 6.5 10.8333V41.1667C6.5 43.5608 8.43917 45.5 10.8333 45.5H22.9385C22.3838 44.1328 22.0047 42.6812 21.8162 41.1667Z" fill="#EC8E65" />
	<path d="M23.8335 28.1654H25.4802C26.8907 26.4082 28.6305 24.9305 30.6152 23.832H23.8335V28.1654Z" fill="#EC8E65" />
	<path opacity="0.3" d="M8.6665 8.66797H43.3332V17.3346H8.6665V8.66797Z" fill="#EC8E65" />
</svg>
