<svg width="52" height="52" viewBox="0 0 52 52" fill="none" xmlns="http://www.w3.org/2000/svg">
	<path opacity="0.3" d="M15.1667 13C15.1667 13 6.50004 19.5 4.33337 26C10.8334 34.6667 17.3334 45.5 36.8334 39C36.8334 36.8333 36.8334 36.8333 36.8334 36.8333L30.5934 30.5933L21.6667 30.3333V21.6667L15.1667 13Z" fill="#EC8E65" />
	<path d="M27.1267 30.1819C26.78 30.2902 26.39 30.3335 26 30.3335C23.6167 30.3335 21.6667 28.3835 21.6667 26.0002C21.6667 25.6102 21.71 25.2202 21.8184 24.8735C22.23 23.4002 23.4 22.2302 24.8734 21.8185L21.6017 18.5469C20.345 19.2835 19.2834 20.3452 18.5467 21.6019C17.7667 22.9019 17.3334 24.3969 17.3334 26.0002C17.3334 26.1735 17.3334 26.3685 17.355 26.5419C17.615 30.8969 21.1034 34.3852 25.4584 34.6452C25.6317 34.6669 25.8267 34.6669 26 34.6669C27.6034 34.6669 29.0984 34.2335 30.3984 33.4535C31.655 32.7169 32.7167 31.6552 33.4534 30.3985L30.1817 27.1269C29.77 28.6002 28.6 29.7702 27.1267 30.1819Z" fill="#EC8E65" />
	<path d="M26 8.66797C23.4 8.66797 21.0383 9.05797 18.915 9.72964L22.5116 13.3263C23.595 13.1096 24.765 13.0013 26 13.0013C37.44 13.0013 43.2033 22.253 45.0883 26.0013C44.3733 27.4313 43.0516 29.6846 41.08 31.8946L44.1566 34.9713C48.1216 30.5513 49.8333 26.0013 49.8333 26.0013C49.8333 26.0013 43.3333 8.66797 26 8.66797ZM34.1466 37.203C32.7383 37.8746 31.1783 38.3946 29.4883 38.6763C28.3833 38.893 27.235 39.0013 26 39.0013C14.56 39.0013 8.79663 29.7496 6.91163 26.0013C7.62663 24.5713 8.92663 22.318 10.92 20.108C11.8083 19.0896 12.87 18.0713 14.0616 17.118C15.1883 16.2513 16.445 15.4496 17.8533 14.7996L14.625 11.5713C13.2816 12.308 12.09 13.1313 10.985 14.0413C9.81496 14.9946 8.77496 16.013 7.84329 17.0313C3.87829 21.4513 2.16663 26.0013 2.16663 26.0013C2.16663 26.0013 8.66663 43.3346 26 43.3346C28.6 43.3346 30.9616 42.9446 33.085 42.273C34.645 41.7963 36.075 41.168 37.375 40.4313C38.7183 39.6946 39.91 38.8713 41.015 37.9613L37.9166 34.863C36.79 35.7513 35.5333 36.553 34.1466 37.203Z" fill="#EC8E65" />
	<path d="M26.5416 17.3555L34.645 25.4588C34.385 21.1038 30.8966 17.6155 26.5416 17.3555Z" fill="#EC8E65" />
	<path d="M8.03161 4.96707L4.96753 8.03125L43.9685 47.0308L47.0325 43.9666L8.03161 4.96707Z" fill="#EC8E65" />
</svg>
