<svg width="20" height="20" viewBox="0 0 20 20" fill="none" xmlns="http://www.w3.org/2000/svg">
	<path d="M10.0005 2.5V4.16667C13.2222 4.16667 15.8338 6.77833 15.8338 10H17.5005C17.5005 5.8575 14.143 2.5 10.0005 2.5Z" fill="#1033B1" />
	<path d="M10.0005 5.83331V7.49998C11.3813 7.49998 12.5005 8.61915 12.5005 9.99998H14.1672C14.1672 7.69915 12.3013 5.83331 10.0005 5.83331Z" fill="#1033B1" />
	<path d="M16.6863 12.9067C16.1613 12.8942 15.5005 12.8633 15.083 12.79C14.6313 12.71 14.088 12.555 13.7055 12.4358C13.6238 12.41 13.5397 12.3983 13.4563 12.3983C13.2347 12.3983 13.018 12.4858 12.8563 12.6467L11.0088 14.4833C9.73215 13.8108 8.70965 13.0275 7.84382 12.1567C6.97299 11.2908 6.18965 10.2683 5.51715 8.99167L7.35382 7.14333C7.57549 6.92083 7.65799 6.59417 7.56465 6.29417C7.44632 5.9125 7.29049 5.36917 7.21132 4.9175C7.13715 4.5 7.10715 3.83917 7.09382 3.31417C7.08299 2.86 6.71299 2.5 6.25882 2.5H3.33382C2.96882 2.5 2.50049 2.77333 2.50049 3.33333C2.50049 7.11583 4.03382 10.7283 6.63882 13.3617C9.27215 15.9667 12.8847 17.5 16.6672 17.5C17.2272 17.5 17.5005 17.0317 17.5005 16.6667V13.7417C17.5005 13.2875 17.1405 12.9175 16.6863 12.9067ZM4.19549 4.16667H5.45966C5.48465 4.59 5.52049 4.93417 5.56882 5.20667C5.62466 5.52333 5.71215 5.89333 5.83049 6.31167L4.82799 7.32083C4.48382 6.3025 4.26965 5.24083 4.19549 4.16667ZM15.8338 15.805C14.7588 15.7317 13.698 15.5167 12.6797 15.1733L13.6897 14.17C14.1072 14.2883 14.478 14.3758 14.7947 14.4317C15.0672 14.48 15.4105 14.5158 15.8338 14.5408V15.805Z" fill="#1033B1" />
</svg>
