<svg width="116" height="34" viewBox="0 0 116 34" fill="none" xmlns="http://www.w3.org/2000/svg">
	<path fill-rule="evenodd" clip-rule="evenodd" d="M23.6616 7.01969C23.5506 7.01677 23.4391 7.01529 23.3273 7.01529C16.4496 7.01529 10.8742 12.5908 10.8742 19.4685C10.8742 21.4164 11.3214 23.26 12.1189 24.9019C5.39572 24.7248 0 19.2191 0 12.4532C0 5.57547 5.57547 0 12.4532 0C17.3829 0 21.6436 2.86443 23.6616 7.01969Z" fill="white" />
	<path fill-rule="evenodd" clip-rule="evenodd" d="M9.48486 26.8358C9.59593 26.8387 9.70737 26.8402 9.81915 26.8402C16.6968 26.8402 22.2723 21.2647 22.2723 14.387C22.2723 12.439 21.825 10.5955 21.0276 8.95353C27.7508 9.1307 33.1465 14.6364 33.1465 21.4023C33.1465 28.28 27.571 33.8555 20.6933 33.8555C15.7636 33.8555 11.5029 30.991 9.48486 26.8358Z" fill="#8596CB" />
	<path d="M44.021 25.8621V7.72656H51.176C52.5457 7.72656 53.7146 7.97156 54.6827 8.46155C55.6568 8.94564 56.3977 9.63339 56.9054 10.5248C57.419 11.4103 57.6758 12.4523 57.6758 13.6507C57.6758 14.855 57.416 15.8911 56.8965 16.7589C56.377 17.6208 55.6243 18.282 54.6384 18.7425C53.6585 19.203 52.4719 19.4332 51.0786 19.4332H46.2879V16.3516H50.4588C51.1908 16.3516 51.7989 16.2512 52.283 16.0505C52.767 15.8498 53.1272 15.5487 53.3633 15.1473C53.6053 14.7458 53.7264 14.247 53.7264 13.6507C53.7264 13.0486 53.6053 12.5409 53.3633 12.1276C53.1272 11.7144 52.7641 11.4015 52.2741 11.189C51.79 10.9705 51.179 10.8613 50.4411 10.8613H47.8553V25.8621H44.021ZM53.8149 17.609L58.3222 25.8621H54.0894L49.6795 17.609H53.8149Z" fill="white" />
	<path d="M64.1933 26.1189C63.3255 26.1189 62.5521 25.9684 61.8732 25.6673C61.1943 25.3603 60.6571 24.9087 60.2615 24.3125C59.8719 23.7103 59.6771 22.9606 59.6771 22.0632C59.6771 21.3076 59.8158 20.6729 60.0933 20.1593C60.3708 19.6457 60.7486 19.2325 61.2268 18.9196C61.7049 18.6067 62.2481 18.3706 62.8561 18.2112C63.4701 18.0518 64.1136 17.9396 64.7866 17.8747C65.5776 17.792 66.2152 17.7153 66.6993 17.6444C67.1834 17.5677 67.5347 17.4555 67.7531 17.3079C67.9715 17.1604 68.0807 16.9419 68.0807 16.6527V16.5995C68.0807 16.0387 67.9036 15.6048 67.5494 15.2978C67.2011 14.9908 66.7052 14.8373 66.0617 14.8373C65.3828 14.8373 64.8427 14.9879 64.4412 15.289C64.0398 15.5841 63.7741 15.956 63.6442 16.4047L60.1553 16.1213C60.3324 15.2949 60.6807 14.5805 61.2002 13.9784C61.7197 13.3703 62.3897 12.9039 63.2103 12.5792C64.0368 12.2486 64.9932 12.0833 66.0794 12.0833C66.8351 12.0833 67.5583 12.1719 68.249 12.349C68.9456 12.5261 69.5625 12.8006 70.0997 13.1725C70.6428 13.5445 71.0709 14.0226 71.3837 14.6071C71.6966 15.1856 71.8531 15.8793 71.8531 16.6881V25.8621H68.2755V23.976H68.1693C67.9508 24.401 67.6586 24.7759 67.2926 25.1006C66.9266 25.4194 66.4868 25.6703 65.9732 25.8533C65.4596 26.0304 64.8663 26.1189 64.1933 26.1189ZM65.2736 23.5155C65.8285 23.5155 66.3185 23.4063 66.7436 23.1878C67.1686 22.9635 67.5022 22.6624 67.7442 22.2846C67.9863 21.9068 68.1073 21.4788 68.1073 21.0006V19.5572C67.9892 19.6339 67.8269 19.7048 67.6203 19.7697C67.4195 19.8287 67.1923 19.8848 66.9384 19.938C66.6845 19.9852 66.4307 20.0295 66.1768 20.0708C65.923 20.1062 65.6928 20.1387 65.4861 20.1682C65.0434 20.2331 64.6567 20.3364 64.3261 20.4781C63.9955 20.6198 63.7387 20.8117 63.5557 21.0537C63.3727 21.2899 63.2812 21.585 63.2812 21.9392C63.2812 22.4529 63.4671 22.8454 63.8391 23.117C64.2169 23.3827 64.6951 23.5155 65.2736 23.5155Z" fill="white" />
	<path d="M86.0967 16.1391L82.6432 16.3516C82.5842 16.0564 82.4572 15.7907 82.2624 15.5546C82.0676 15.3126 81.8108 15.1207 81.492 14.979C81.1791 14.8314 80.8043 14.7576 80.3674 14.7576C79.783 14.7576 79.29 14.8816 78.8886 15.1296C78.4871 15.3716 78.2864 15.6963 78.2864 16.1036C78.2864 16.4283 78.4163 16.7028 78.676 16.9272C78.9358 17.1515 79.3815 17.3316 80.0132 17.4673L82.4749 17.9632C83.7973 18.2348 84.7832 18.6717 85.4326 19.2738C86.082 19.876 86.4067 20.667 86.4067 21.647C86.4067 22.5385 86.144 23.3207 85.6186 23.9937C85.0991 24.6667 84.3847 25.1921 83.4756 25.5699C82.5724 25.9418 81.5304 26.1278 80.3497 26.1278C78.5491 26.1278 77.1146 25.7529 76.046 25.0032C74.9834 24.2475 74.3606 23.2203 74.1776 21.9215L77.8879 21.7267C78.0001 22.2757 78.2717 22.6949 78.7026 22.9842C79.1336 23.2675 79.6855 23.4092 80.3585 23.4092C81.0197 23.4092 81.5511 23.2823 81.9525 23.0284C82.3598 22.7687 82.5665 22.4351 82.5724 22.0278C82.5665 21.6854 82.4218 21.405 82.1384 21.1866C81.8551 20.9622 81.4182 20.791 80.8279 20.6729L78.4724 20.2036C77.1441 19.938 76.1552 19.4775 75.5059 18.8222C74.8624 18.1669 74.5406 17.3316 74.5406 16.3162C74.5406 15.4424 74.7768 14.6897 75.2491 14.0581C75.7272 13.4264 76.3973 12.9394 77.2592 12.597C78.127 12.2546 79.1424 12.0833 80.3054 12.0833C82.0233 12.0833 83.3752 12.4464 84.3611 13.1725C85.3529 13.8987 85.9314 14.8875 86.0967 16.1391Z" fill="white" />
	<path d="M92.6607 26.1189C91.7929 26.1189 91.0195 25.9684 90.3406 25.6673C89.6617 25.3603 89.1245 24.9087 88.729 24.3125C88.3393 23.7103 88.1445 22.9606 88.1445 22.0632C88.1445 21.3076 88.2833 20.6729 88.5607 20.1593C88.8382 19.6457 89.216 19.2325 89.6942 18.9196C90.1724 18.6067 90.7155 18.3706 91.3236 18.2112C91.9375 18.0518 92.581 17.9396 93.254 17.8747C94.0451 17.792 94.6827 17.7153 95.1667 17.6444C95.6508 17.5677 96.0021 17.4555 96.2205 17.3079C96.439 17.1604 96.5482 16.9419 96.5482 16.6527V16.5995C96.5482 16.0387 96.3711 15.6048 96.0168 15.2978C95.6685 14.9908 95.1726 14.8373 94.5292 14.8373C93.8503 14.8373 93.3101 14.9879 92.9087 15.289C92.5072 15.5841 92.2416 15.956 92.1117 16.4047L88.6227 16.1213C88.7998 15.2949 89.1481 14.5805 89.6676 13.9784C90.1871 13.3703 90.8572 12.9039 91.6778 12.5792C92.5043 12.2486 93.4606 12.0833 94.5469 12.0833C95.3025 12.0833 96.0257 12.1719 96.7164 12.349C97.413 12.5261 98.0299 12.8006 98.5672 13.1725C99.1103 13.5445 99.5383 14.0226 99.8512 14.6071C100.164 15.1856 100.321 15.8793 100.321 16.6881V25.8621H96.743V23.976H96.6367C96.4183 24.401 96.1261 24.7759 95.76 25.1006C95.394 25.4194 94.9542 25.6703 94.4406 25.8533C93.927 26.0304 93.3337 26.1189 92.6607 26.1189ZM93.741 23.5155C94.296 23.5155 94.786 23.4063 95.211 23.1878C95.6361 22.9635 95.9696 22.6624 96.2117 22.2846C96.4537 21.9068 96.5747 21.4788 96.5747 21.0006V19.5572C96.4567 19.6339 96.2943 19.7048 96.0877 19.7697C95.887 19.8287 95.6597 19.8848 95.4058 19.938C95.152 19.9852 94.8981 20.0295 94.6443 20.0708C94.3904 20.1062 94.1602 20.1387 93.9536 20.1682C93.5108 20.2331 93.1241 20.3364 92.7935 20.4781C92.4629 20.6198 92.2061 20.8117 92.0231 21.0537C91.8401 21.2899 91.7486 21.585 91.7486 21.9392C91.7486 22.4529 91.9346 22.8454 92.3065 23.117C92.6843 23.3827 93.1625 23.5155 93.741 23.5155Z" fill="white" />
	<path d="M108.259 26.0835C107.226 26.0835 106.29 25.8179 105.452 25.2865C104.62 24.7493 103.959 23.9612 103.469 22.9222C102.984 21.8773 102.742 20.5962 102.742 19.079C102.742 17.5205 102.993 16.2247 103.495 15.1915C103.997 14.1525 104.664 13.3762 105.496 12.8626C106.335 12.3431 107.253 12.0833 108.25 12.0833C109.012 12.0833 109.647 12.2132 110.154 12.473C110.668 12.7268 111.081 13.0456 111.394 13.4293C111.713 13.8072 111.955 14.1791 112.12 14.5451H112.235V7.72656H115.999V25.8621H112.28V23.6837H112.12C111.943 24.0616 111.692 24.4364 111.367 24.8084C111.049 25.1744 110.632 25.4784 110.119 25.7204C109.611 25.9625 108.991 26.0835 108.259 26.0835ZM109.455 23.0816C110.063 23.0816 110.576 22.9163 110.996 22.5857C111.421 22.2492 111.745 21.7799 111.97 21.1777C112.2 20.5755 112.315 19.8701 112.315 19.0613C112.315 18.2525 112.203 17.55 111.978 16.9537C111.754 16.3575 111.429 15.897 111.004 15.5723C110.579 15.2476 110.063 15.0853 109.455 15.0853C108.835 15.0853 108.312 15.2535 107.887 15.59C107.462 15.9265 107.141 16.3929 106.922 16.9892C106.704 17.5854 106.594 18.2761 106.594 19.0613C106.594 19.8524 106.704 20.5519 106.922 21.16C107.146 21.7621 107.468 22.2344 107.887 22.5768C108.312 22.9133 108.835 23.0816 109.455 23.0816Z" fill="white" />
</svg>
