<svg width="111" height="33" viewBox="0 0 111 33" fill="none" xmlns="http://www.w3.org/2000/svg">
	<path fill-rule="evenodd" clip-rule="evenodd" d="M22.3942 7.55065C22.2986 7.54814 22.2028 7.54688 22.1066 7.54688C16.1789 7.54688 11.3735 12.3523 11.3735 18.28C11.3735 19.9587 11.7589 21.5474 12.4461 22.9625C6.65125 22.81 2.00049 18.0647 2.00049 12.2331C2.00049 6.30538 6.80587 1.5 12.7336 1.5C16.9826 1.5 20.655 3.96903 22.3942 7.55065Z" fill="#1033B1" />
	<path fill-rule="evenodd" clip-rule="evenodd" d="M10.1752 24.6273C10.2707 24.6298 10.3665 24.6311 10.4627 24.6311C16.3904 24.6311 21.1958 19.8257 21.1958 13.898C21.1958 12.2193 20.8104 10.6306 20.1233 9.21553C25.9181 9.36793 30.5688 14.1133 30.5688 19.9449C30.5688 25.8726 25.7635 30.678 19.8357 30.678C15.5867 30.678 11.9144 28.2089 10.1752 24.6273Z" fill="#8596CB" />
	<path d="M42.0005 24.9456V7.80328H48.7854C50.0842 7.80328 51.1927 8.03486 52.1107 8.49802C53.0344 8.95559 53.737 9.60569 54.2184 10.4483C54.7055 11.2853 54.949 12.2702 54.949 13.403C54.949 14.5414 54.7027 15.5207 54.2101 16.341C53.7174 17.1557 53.0037 17.7807 52.0688 18.2159C51.1395 18.6512 50.0142 18.8688 48.6931 18.8688H44.1502V15.9559H48.1053C48.7994 15.9559 49.3761 15.8611 49.8351 15.6714C50.2941 15.4816 50.6356 15.197 50.8596 14.8176C51.0891 14.4381 51.2038 13.9666 51.2038 13.403C51.2038 12.8338 51.0891 12.3539 50.8596 11.9633C50.6356 11.5727 50.2913 11.277 49.8267 11.0761C49.3677 10.8696 48.7882 10.7664 48.0885 10.7664H45.6365V24.9456H42.0005ZM51.2878 17.1445L55.562 24.9456H51.5481L47.3663 17.1445H51.2878Z" fill="#111828" />
	<path d="M61.1294 25.1884C60.3064 25.1884 59.5731 25.0461 58.9293 24.7615C58.2855 24.4713 57.7761 24.0444 57.401 23.4808C57.0315 22.9117 56.8468 22.203 56.8468 21.3548C56.8468 20.6405 56.9783 20.0406 57.2415 19.5552C57.5046 19.0697 57.8628 18.6791 58.3163 18.3833C58.7697 18.0876 59.2848 17.8644 59.8614 17.7137C60.4436 17.563 61.0538 17.457 61.692 17.3956C62.4421 17.3175 63.0467 17.245 63.5058 17.178C63.9648 17.1055 64.2979 16.9994 64.5051 16.8599C64.7122 16.7204 64.8157 16.514 64.8157 16.2405V16.1903C64.8157 15.6602 64.6478 15.2501 64.3119 14.9599C63.9816 14.6697 63.5114 14.5246 62.9012 14.5246C62.2574 14.5246 61.7452 14.6669 61.3645 14.9515C60.9838 15.2305 60.7319 15.5821 60.6087 16.0062L57.3002 15.7383C57.4682 14.9571 57.7985 14.2819 58.2911 13.7127C58.7837 13.1379 59.4191 12.6971 60.1973 12.3902C60.981 12.0777 61.8879 11.9215 62.918 11.9215C63.6345 11.9215 64.3203 12.0052 64.9753 12.1726C65.6359 12.34 66.2209 12.5995 66.7303 12.951C67.2453 13.3026 67.6512 13.7546 67.9479 14.307C68.2446 14.8539 68.393 15.5095 68.393 16.274V24.9456H65.0005V23.1628H64.8997C64.6926 23.5645 64.4155 23.9189 64.0684 24.2258C63.7213 24.5271 63.3042 24.7643 62.8172 24.9373C62.3302 25.1047 61.7676 25.1884 61.1294 25.1884ZM62.1538 22.7275C62.6801 22.7275 63.1447 22.6243 63.5478 22.4178C63.9508 22.2058 64.2671 21.9212 64.4967 21.564C64.7262 21.2069 64.8409 20.8023 64.8409 20.3503V18.986C64.729 19.0585 64.575 19.1255 64.3791 19.1869C64.1888 19.2427 63.9732 19.2957 63.7325 19.3459C63.4918 19.3906 63.2511 19.4324 63.0103 19.4715C62.7696 19.5049 62.5513 19.5356 62.3554 19.5635C61.9355 19.6249 61.5688 19.7226 61.2553 19.8565C60.9418 19.9904 60.6983 20.1718 60.5248 20.4006C60.3512 20.6238 60.2645 20.9028 60.2645 21.2376C60.2645 21.7231 60.4408 22.0942 60.7935 22.3508C61.1518 22.602 61.6052 22.7275 62.1538 22.7275Z" fill="#111828" />
	<path d="M81.8999 15.7551L78.625 15.9559C78.569 15.6769 78.4486 15.4258 78.2639 15.2026C78.0792 14.9738 77.8356 14.7925 77.5333 14.6585C77.2366 14.519 76.8812 14.4493 76.4669 14.4493C75.9127 14.4493 75.4452 14.5665 75.0646 14.8008C74.6839 15.0296 74.4935 15.3365 74.4935 15.7216C74.4935 16.0285 74.6167 16.288 74.863 16.5C75.1093 16.7121 75.532 16.8823 76.131 17.0106L78.4654 17.4793C79.7194 17.736 80.6543 18.149 81.2701 18.7181C81.8859 19.2873 82.1938 20.0351 82.1938 20.9614C82.1938 21.804 81.9447 22.5434 81.4465 23.1795C80.9538 23.8156 80.2764 24.3123 79.4143 24.6694C78.5578 25.021 77.5697 25.1967 76.4501 25.1967C74.7427 25.1967 73.3823 24.8424 72.3691 24.1337C71.3614 23.4195 70.7708 22.4485 70.5972 21.2209L74.1157 21.0367C74.222 21.5557 74.4796 21.9519 74.8882 22.2253C75.2969 22.4931 75.8203 22.6271 76.4585 22.6271C77.0855 22.6271 77.5893 22.5071 77.97 22.2671C78.3563 22.0216 78.5522 21.7063 78.5578 21.3213C78.5522 20.9976 78.4151 20.7326 78.1463 20.5261C77.8776 20.3141 77.4634 20.1522 76.9036 20.0406L74.6699 19.597C73.4103 19.3459 72.4726 18.9107 71.8568 18.2913C71.2466 17.6719 70.9415 16.8823 70.9415 15.9225C70.9415 15.0966 71.1654 14.3851 71.6133 13.788C72.0668 13.191 72.7021 12.7306 73.5195 12.4069C74.3424 12.0833 75.3053 11.9215 76.4081 11.9215C78.0372 11.9215 79.3192 12.2646 80.254 12.951C81.1945 13.6374 81.7432 14.5721 81.8999 15.7551Z" fill="#111828" />
	<path d="M88.1243 25.1884C87.3014 25.1884 86.5681 25.0461 85.9243 24.7615C85.2805 24.4713 84.7711 24.0444 84.396 23.4808C84.0265 22.9117 83.8418 22.203 83.8418 21.3548C83.8418 20.6405 83.9733 20.0406 84.2364 19.5552C84.4995 19.0697 84.8578 18.6791 85.3113 18.3833C85.7647 18.0876 86.2798 17.8644 86.8564 17.7137C87.4386 17.563 88.0488 17.457 88.687 17.3956C89.4371 17.3175 90.0417 17.245 90.5008 17.178C90.9598 17.1055 91.2929 16.9994 91.5 16.8599C91.7072 16.7204 91.8107 16.514 91.8107 16.2405V16.1903C91.8107 15.6602 91.6428 15.2501 91.3069 14.9599C90.9766 14.6697 90.5064 14.5246 89.8962 14.5246C89.2524 14.5246 88.7401 14.6669 88.3595 14.9515C87.9788 15.2305 87.7269 15.5821 87.6037 16.0062L84.2952 15.7383C84.4632 14.9571 84.7934 14.2819 85.2861 13.7127C85.7787 13.1379 86.4141 12.6971 87.1923 12.3902C87.976 12.0777 88.8829 11.9215 89.913 11.9215C90.6295 11.9215 91.3153 12.0052 91.9703 12.1726C92.6309 12.34 93.2159 12.5995 93.7253 12.951C94.2403 13.3026 94.6462 13.7546 94.9429 14.307C95.2396 14.8539 95.3879 15.5095 95.3879 16.274V24.9456H91.9955V23.1628H91.8947C91.6876 23.5645 91.4105 23.9189 91.0634 24.2258C90.7163 24.5271 90.2992 24.7643 89.8122 24.9373C89.3251 25.1047 88.7625 25.1884 88.1243 25.1884ZM89.1488 22.7275C89.675 22.7275 90.1397 22.6243 90.5427 22.4178C90.9458 22.2058 91.2621 21.9212 91.4916 21.564C91.7212 21.2069 91.8359 20.8023 91.8359 20.3503V18.986C91.724 19.0585 91.57 19.1255 91.3741 19.1869C91.1837 19.2427 90.9682 19.2957 90.7275 19.3459C90.4868 19.3906 90.246 19.4324 90.0053 19.4715C89.7646 19.5049 89.5463 19.5356 89.3503 19.5635C88.9305 19.6249 88.5638 19.7226 88.2503 19.8565C87.9368 19.9904 87.6933 20.1718 87.5197 20.4006C87.3462 20.6238 87.2594 20.9028 87.2594 21.2376C87.2594 21.7231 87.4358 22.0942 87.7885 22.3508C88.1467 22.602 88.6002 22.7275 89.1488 22.7275Z" fill="#111828" />
	<path d="M102.916 25.1549C101.936 25.1549 101.049 24.9038 100.254 24.4016C99.4648 23.8938 98.8378 23.1488 98.3732 22.1667C97.9141 21.179 97.6846 19.9681 97.6846 18.534C97.6846 17.0608 97.9225 15.836 98.3983 14.8594C98.8742 13.8773 99.5068 13.1435 100.296 12.6581C101.091 12.167 101.962 11.9215 102.908 11.9215C103.63 11.9215 104.232 12.0442 104.713 12.2898C105.2 12.5297 105.592 12.831 105.889 13.1937C106.191 13.5509 106.421 13.9024 106.577 14.2484H106.686V7.80328H110.255V24.9456H106.728V22.8865H106.577C106.409 23.2437 106.171 23.598 105.863 23.9496C105.561 24.2955 105.167 24.5829 104.679 24.8117C104.198 25.0405 103.61 25.1549 102.916 25.1549ZM104.05 22.3174C104.626 22.3174 105.113 22.1611 105.511 21.8486C105.914 21.5306 106.222 21.0869 106.434 20.5178C106.653 19.9486 106.762 19.2817 106.762 18.5173C106.762 17.7528 106.656 17.0887 106.443 16.5251C106.23 15.9615 105.922 15.5263 105.519 15.2194C105.116 14.9124 104.626 14.759 104.05 14.759C103.462 14.759 102.966 14.918 102.563 15.2361C102.16 15.5542 101.855 15.995 101.648 16.5586C101.441 17.1222 101.337 17.7751 101.337 18.5173C101.337 19.265 101.441 19.9263 101.648 20.501C101.861 21.0702 102.166 21.5166 102.563 21.8403C102.966 22.1583 103.462 22.3174 104.05 22.3174Z" fill="#111828" />
</svg>
