<svg width="215" height="215" viewBox="0 0 215 215" fill="none" xmlns="http://www.w3.org/2000/svg">
	<path d="M147.812 157.891H67.1875C61.6311 157.891 57.1094 153.369 57.1094 147.812V67.1875C57.1094 61.6311 61.6311 57.1094 67.1875 57.1094H147.812C153.369 57.1094 157.891 61.6311 157.891 67.1875V147.812C157.891 153.369 153.369 157.891 147.812 157.891ZM67.1875 63.8281C65.3365 63.8281 63.8281 65.3365 63.8281 67.1875V147.812C63.8281 149.664 65.3365 151.172 67.1875 151.172H147.812C149.664 151.172 151.172 149.664 151.172 147.812V67.1875C151.172 65.3365 149.664 63.8281 147.812 63.8281H67.1875Z" fill="url(#paint0_linear_360_19809)" />
	<path d="M70.5469 50.3906H63.8281C60.1227 50.3906 57.1094 47.3773 57.1094 43.6719V33.5938C57.1094 29.8884 60.1227 26.875 63.8281 26.875H70.5469C74.2523 26.875 77.2656 29.8884 77.2656 33.5938V43.6719C77.2656 47.3773 74.2523 50.3906 70.5469 50.3906ZM63.8281 33.5938V43.6719H70.5469V33.5938H63.8281Z" fill="url(#paint1_linear_360_19809)" />
	<path d="M110.859 50.3906H104.141C100.435 50.3906 97.4219 47.3773 97.4219 43.6719V33.5938C97.4219 29.8884 100.435 26.875 104.141 26.875H110.859C114.565 26.875 117.578 29.8884 117.578 33.5938V43.6719C117.578 47.3773 114.565 50.3906 110.859 50.3906ZM104.141 33.5938V43.6719H110.859V33.5938H104.141Z" fill="url(#paint2_linear_360_19809)" />
	<path d="M151.172 50.3906H144.453C140.748 50.3906 137.734 47.3773 137.734 43.6719V33.5938C137.734 29.8884 140.748 26.875 144.453 26.875H151.172C154.877 26.875 157.891 29.8884 157.891 33.5938V43.6719C157.891 47.3773 154.877 50.3906 151.172 50.3906ZM144.453 33.5938V43.6719H151.172V33.5938H144.453Z" fill="url(#paint3_linear_360_19809)" />
	<path d="M70.5469 188.125H63.8281C60.1227 188.125 57.1094 185.112 57.1094 181.406V171.328C57.1094 167.623 60.1227 164.609 63.8281 164.609H70.5469C74.2523 164.609 77.2656 167.623 77.2656 171.328V181.406C77.2656 185.112 74.2523 188.125 70.5469 188.125ZM63.8281 171.328V181.406H70.5469V171.328H63.8281Z" fill="url(#paint4_linear_360_19809)" />
	<path d="M110.859 188.125H104.141C100.435 188.125 97.4219 185.112 97.4219 181.406V171.328C97.4219 167.623 100.435 164.609 104.141 164.609H110.859C114.565 164.609 117.578 167.623 117.578 171.328V181.406C117.578 185.112 114.565 188.125 110.859 188.125ZM104.141 171.328V181.406H110.859V171.328H104.141Z" fill="url(#paint5_linear_360_19809)" />
	<path d="M151.172 188.125H144.453C140.748 188.125 137.734 185.112 137.734 181.406V171.328C137.734 167.623 140.748 164.609 144.453 164.609H151.172C154.877 164.609 157.891 167.623 157.891 171.328V181.406C157.891 185.112 154.877 188.125 151.172 188.125ZM144.453 171.328V181.406H151.172V171.328H144.453Z" fill="url(#paint6_linear_360_19809)" />
	<path d="M43.6719 157.891H33.5938C29.8884 157.891 26.875 154.877 26.875 151.172V144.453C26.875 140.748 29.8884 137.734 33.5938 137.734H43.6719C47.3773 137.734 50.3906 140.748 50.3906 144.453V151.172C50.3906 154.877 47.3773 157.891 43.6719 157.891ZM33.5938 144.453V151.172H43.6719V144.453H33.5938Z" fill="url(#paint7_linear_360_19809)" />
	<path d="M43.6719 117.578H33.5938C29.8884 117.578 26.875 114.565 26.875 110.859V104.141C26.875 100.435 29.8884 97.4219 33.5938 97.4219H43.6719C47.3773 97.4219 50.3906 100.435 50.3906 104.141V110.859C50.3906 114.565 47.3773 117.578 43.6719 117.578ZM33.5938 104.141V110.859H43.6719V104.141H33.5938Z" fill="url(#paint8_linear_360_19809)" />
	<path d="M43.6719 77.2656H33.5938C29.8884 77.2656 26.875 74.2523 26.875 70.5469V63.8281C26.875 60.1227 29.8884 57.1094 33.5938 57.1094H43.6719C47.3773 57.1094 50.3906 60.1227 50.3906 63.8281V70.5469C50.3906 74.2523 47.3773 77.2656 43.6719 77.2656ZM33.5938 63.8281V70.5469H43.6719V63.8281H33.5938Z" fill="url(#paint9_linear_360_19809)" />
	<path d="M181.406 157.891H171.328C167.623 157.891 164.609 154.877 164.609 151.172V144.453C164.609 140.748 167.623 137.734 171.328 137.734H181.406C185.112 137.734 188.125 140.748 188.125 144.453V151.172C188.125 154.877 185.112 157.891 181.406 157.891ZM171.328 144.453V151.172H181.406V144.453H171.328Z" fill="url(#paint10_linear_360_19809)" />
	<path d="M181.406 117.578H171.328C167.623 117.578 164.609 114.565 164.609 110.859V104.141C164.609 100.435 167.623 97.4219 171.328 97.4219H181.406C185.112 97.4219 188.125 100.435 188.125 104.141V110.859C188.125 114.565 185.112 117.578 181.406 117.578ZM171.328 104.141V110.859H181.406V104.141H171.328Z" fill="url(#paint11_linear_360_19809)" />
	<path d="M181.406 77.2656H171.328C167.623 77.2656 164.609 74.2523 164.609 70.5469V63.8281C164.609 60.1227 167.623 57.1094 171.328 57.1094H181.406C185.112 57.1094 188.125 60.1227 188.125 63.8281V70.5469C188.125 74.2523 185.112 77.2656 181.406 77.2656ZM171.328 63.8281V70.5469H181.406V63.8281H171.328Z" fill="url(#paint12_linear_360_19809)" />
	<path d="M137.734 144.453H77.2656C73.5602 144.453 70.5469 141.44 70.5469 137.734V77.2656C70.5469 73.5602 73.5602 70.5469 77.2656 70.5469H137.734C141.44 70.5469 144.453 73.5602 144.453 77.2656V137.734C144.453 141.44 141.44 144.453 137.734 144.453ZM77.2656 77.2656V137.734H137.734V77.2656H77.2656Z" fill="url(#paint13_linear_360_19809)" />
	<path d="M113.394 99.0506C113.298 99.0481 113.202 99.0468 113.106 99.0468C107.178 99.0468 102.373 103.852 102.373 109.78C102.373 111.459 102.758 113.047 103.446 114.462C97.6508 114.31 93 109.565 93 103.733C93 97.8054 97.8054 93 103.733 93C107.982 93 111.654 95.469 113.394 99.0506Z" fill="url(#paint14_linear_360_19809)" />
	<path d="M101.175 116.127C101.27 116.13 101.366 116.131 101.462 116.131C107.39 116.131 112.195 111.326 112.195 105.398C112.195 103.719 111.81 102.13 111.123 100.715C116.918 100.868 121.568 105.613 121.568 111.445C121.568 117.372 116.763 122.178 110.835 122.178C106.586 122.178 102.914 119.709 101.175 116.127Z" fill="url(#paint15_linear_360_19809)" />
	<defs>
		<linearGradient id="paint0_linear_360_19809" x1="26.875" y1="188.125" x2="156.063" y2="4.33775" gradientUnits="userSpaceOnUse">
			<stop stop-color="#1033B1" />
			<stop offset="1" stop-color="#1A6DFF" />
		</linearGradient>
		<linearGradient id="paint1_linear_360_19809" x1="26.875" y1="188.125" x2="156.063" y2="4.33775" gradientUnits="userSpaceOnUse">
			<stop stop-color="#1033B1" />
			<stop offset="1" stop-color="#1A6DFF" />
		</linearGradient>
		<linearGradient id="paint2_linear_360_19809" x1="26.875" y1="188.125" x2="156.063" y2="4.33775" gradientUnits="userSpaceOnUse">
			<stop stop-color="#1033B1" />
			<stop offset="1" stop-color="#1A6DFF" />
		</linearGradient>
		<linearGradient id="paint3_linear_360_19809" x1="26.875" y1="188.125" x2="156.063" y2="4.33775" gradientUnits="userSpaceOnUse">
			<stop stop-color="#1033B1" />
			<stop offset="1" stop-color="#1A6DFF" />
		</linearGradient>
		<linearGradient id="paint4_linear_360_19809" x1="26.875" y1="188.125" x2="156.063" y2="4.33775" gradientUnits="userSpaceOnUse">
			<stop stop-color="#1033B1" />
			<stop offset="1" stop-color="#1A6DFF" />
		</linearGradient>
		<linearGradient id="paint5_linear_360_19809" x1="26.875" y1="188.125" x2="156.063" y2="4.33775" gradientUnits="userSpaceOnUse">
			<stop stop-color="#1033B1" />
			<stop offset="1" stop-color="#1A6DFF" />
		</linearGradient>
		<linearGradient id="paint6_linear_360_19809" x1="26.875" y1="188.125" x2="156.063" y2="4.33775" gradientUnits="userSpaceOnUse">
			<stop stop-color="#1033B1" />
			<stop offset="1" stop-color="#1A6DFF" />
		</linearGradient>
		<linearGradient id="paint7_linear_360_19809" x1="26.875" y1="188.125" x2="156.063" y2="4.33775" gradientUnits="userSpaceOnUse">
			<stop stop-color="#1033B1" />
			<stop offset="1" stop-color="#1A6DFF" />
		</linearGradient>
		<linearGradient id="paint8_linear_360_19809" x1="26.875" y1="188.125" x2="156.063" y2="4.33775" gradientUnits="userSpaceOnUse">
			<stop stop-color="#1033B1" />
			<stop offset="1" stop-color="#1A6DFF" />
		</linearGradient>
		<linearGradient id="paint9_linear_360_19809" x1="26.875" y1="188.125" x2="156.063" y2="4.33775" gradientUnits="userSpaceOnUse">
			<stop stop-color="#1033B1" />
			<stop offset="1" stop-color="#1A6DFF" />
		</linearGradient>
		<linearGradient id="paint10_linear_360_19809" x1="26.875" y1="188.125" x2="156.063" y2="4.33775" gradientUnits="userSpaceOnUse">
			<stop stop-color="#1033B1" />
			<stop offset="1" stop-color="#1A6DFF" />
		</linearGradient>
		<linearGradient id="paint11_linear_360_19809" x1="26.875" y1="188.125" x2="156.063" y2="4.33775" gradientUnits="userSpaceOnUse">
			<stop stop-color="#1033B1" />
			<stop offset="1" stop-color="#1A6DFF" />
		</linearGradient>
		<linearGradient id="paint12_linear_360_19809" x1="26.875" y1="188.125" x2="156.063" y2="4.33775" gradientUnits="userSpaceOnUse">
			<stop stop-color="#1033B1" />
			<stop offset="1" stop-color="#1A6DFF" />
		</linearGradient>
		<linearGradient id="paint13_linear_360_19809" x1="26.875" y1="188.125" x2="156.063" y2="4.33775" gradientUnits="userSpaceOnUse">
			<stop stop-color="#1033B1" />
			<stop offset="1" stop-color="#1A6DFF" />
		</linearGradient>
		<linearGradient id="paint14_linear_360_19809" x1="93" y1="122.178" x2="116.539" y2="89.3895" gradientUnits="userSpaceOnUse">
			<stop stop-color="#1033B1" />
			<stop offset="1" stop-color="#1A6DFF" />
		</linearGradient>
		<linearGradient id="paint15_linear_360_19809" x1="93" y1="122.178" x2="116.539" y2="89.3895" gradientUnits="userSpaceOnUse">
			<stop stop-color="#1033B1" />
			<stop offset="1" stop-color="#1A6DFF" />
		</linearGradient>
	</defs>
</svg>
