<svg width="24" height="24" viewBox="0 0 24 24" fill="none" xmlns="http://www.w3.org/2000/svg">
	<g opacity="0.5">
		<path d="M12 3V5C15.866 5 19 8.134 19 12H21C21 7.029 16.971 3 12 3Z" fill="#F3F6FF" />
		<path d="M12 7V9C13.657 9 15 10.343 15 12H17C17 9.239 14.761 7 12 7Z" fill="#F3F6FF" />
		<path d="M20.023 15.488C19.393 15.473 18.6 15.436 18.099 15.348C17.557 15.252 16.905 15.066 16.446 14.923C16.348 14.892 16.247 14.878 16.147 14.878C15.881 14.878 15.621 14.983 15.427 15.176L13.21 17.38C11.678 16.573 10.451 15.633 9.412 14.588C8.367 13.549 7.427 12.322 6.62 10.79L8.824 8.572C9.09 8.305 9.189 7.913 9.077 7.553C8.935 7.095 8.748 6.443 8.653 5.901C8.564 5.4 8.528 4.607 8.512 3.977C8.499 3.432 8.055 3 7.51 3H4C3.562 3 3 3.328 3 4C3 8.539 4.84 12.874 7.966 16.034C11.126 19.16 15.461 21 20 21C20.672 21 21 20.438 21 20V16.49C21 15.945 20.568 15.501 20.023 15.488ZM5.034 5H6.551C6.581 5.508 6.624 5.921 6.682 6.248C6.749 6.628 6.854 7.072 6.996 7.574L5.793 8.785C5.38 7.563 5.123 6.289 5.034 5ZM19 18.966C17.71 18.878 16.437 18.62 15.215 18.208L16.427 17.004C16.928 17.146 17.373 17.251 17.753 17.318C18.08 17.376 18.492 17.419 19 17.449V18.966Z" fill="#F3F6FF" />
	</g>
</svg>
