<svg width="20" height="20" viewBox="0 0 20 20" fill="none" xmlns="http://www.w3.org/2000/svg">
	<g opacity="0.5">
		<path d="M10 9C8.3428 9 7 7.881 7 6.5C7 5.119 8.3428 4 10 4C11.6572 4 13 5.119 13 6.5C13 7.881 11.6572 9 10 9Z" fill="#F3F6FF" />
		<path d="M10 0C6.14014 0 3 3.13669 3 6.9923C3 11.4749 8.97397 18.7581 9.22823 19.0651L10 20L10.7718 19.0651C11.026 18.7571 17 11.4749 17 6.9923C17 3.13569 13.8599 0 10 0ZM10 16.8153C8.12012 14.3526 5.002 9.70103 5.002 6.9923C5.002 4.23958 7.24424 1.9998 10 1.9998C12.7558 1.9998 14.998 4.23958 14.998 6.9923C14.998 9.69703 11.8799 14.3506 10 16.8153Z" fill="#F3F6FF" />
	</g>
</svg>
