<svg width="24" height="24" viewBox="0 0 24 24" fill="none" xmlns="http://www.w3.org/2000/svg">
	<path d="M21.6338 4.03182C20.8188 4.41682 19.4318 5.13882 18.7348 5.27682C18.7078 5.28382 18.6858 5.29282 18.6598 5.29982C17.8468 4.49782 16.7328 4.00082 15.4998 4.00082C13.0148 4.00082 10.9998 6.01582 10.9998 8.50082C10.9998 8.63182 10.9888 8.87282 10.9998 9.00082C7.78184 9.00082 5.43184 7.32182 3.67284 5.16382C3.43784 4.87382 3.18784 5.02482 3.13584 5.23082C3.01884 5.69682 2.97884 6.47582 2.97884 7.03182C2.97884 8.43282 4.07384 9.80882 5.77884 10.6618C5.46484 10.7428 5.11884 10.8008 4.75884 10.8008C4.33484 10.8008 3.84684 10.6898 3.41984 10.4658C3.26184 10.3828 2.92084 10.4058 3.02184 10.8098C3.42684 12.4288 5.27484 13.5658 6.92584 13.8968C6.55084 14.1178 5.75084 14.0728 5.38284 14.0728C5.24684 14.0728 4.77384 14.0408 4.46784 14.0028C4.18884 13.9688 3.75984 14.0408 4.11884 14.5848C4.88984 15.7518 6.63384 16.4848 8.13484 16.5128C6.75284 17.5968 4.49284 17.9928 2.32784 17.9928C1.88984 17.9828 1.91184 18.4818 2.26484 18.6668C3.86184 19.5048 6.47784 20.0008 8.34684 20.0008C15.7768 20.0008 19.9998 14.3378 19.9998 8.99982C19.9998 8.91382 19.9978 8.73382 19.9948 8.55282C19.9948 8.53482 19.9998 8.51782 19.9998 8.49982C19.9998 8.47282 19.9918 8.44682 19.9918 8.41982C19.9888 8.28382 19.9858 8.15682 19.9828 8.09082C20.5718 7.66582 21.4738 6.92782 21.9298 6.36282C22.0848 6.17082 21.9598 5.93782 21.7488 6.01082C21.2058 6.19982 20.2668 6.56582 19.6788 6.63582C20.8558 5.85682 21.4378 5.17882 21.9378 4.42582C22.1088 4.16882 21.8948 3.90782 21.6338 4.03182Z" fill="#F3F6FF" />
</svg>
