<svg width="28" height="29" viewBox="0 0 28 29" fill="none" xmlns="http://www.w3.org/2000/svg">
	<g clip-path="url(#clip0_761_11956)">
		<g filter="url(#filter0_d_761_11956)">
			<path d="M14.0652 27.6451C13.9831 27.5676 5.99856 19.8572 4.18832 18.0769C3.91128 17.8472 3.68525 17.5621 3.52468 17.2399C3.36412 16.9178 3.27256 16.5657 3.25586 16.2061C3.27731 15.7455 3.47335 15.3104 3.80414 14.9891L4.78088 13.9805L6.50581 15.7614C8.7406 18.0691 11.5198 20.9414 11.7607 21.1895L11.8186 21.2494C12.1318 21.6284 12.5418 21.9155 13.0051 22.0803C13.292 22.1873 13.6002 22.225 13.9044 22.1903C14.2087 22.1557 14.5005 22.0497 14.756 21.881C15.1393 21.5814 15.5036 21.2582 15.8467 20.9134L23.0004 13.9805L23.326 14.2982C23.5432 14.5138 23.7372 14.7514 23.9049 15.0074C24.059 15.2014 24.1664 15.4283 24.2189 15.6705C24.2714 15.9126 24.2676 16.1636 24.2077 16.4041L24.1777 16.4887C24.0919 16.724 23.9897 16.9529 23.8717 17.1738C23.7822 17.318 23.6821 17.4554 23.5721 17.5847L23.5324 17.6328C23.3117 17.9115 23.1743 18.0509 23.173 18.0522L19.3311 21.9481L16.2706 25.1349L13.9851 27.5142L14.0613 27.6445L14.0652 27.6451Z" fill="#87D3FF" />
		</g>
		<g filter="url(#filter1_d_761_11956)">
			<path d="M13.9898 1.88479L16.2747 4.26413L19.3352 7.45091L23.1771 11.3468C23.3038 11.4805 23.4238 11.6205 23.5365 11.7662C23.661 11.9104 23.7744 12.0639 23.8757 12.2252C23.9937 12.4458 24.0958 12.6745 24.1811 12.9096L24.2111 12.9949C24.5784 13.9124 23.3294 15.1001 23.3294 15.1001L15.8495 22.3515C15.5066 22.6966 15.1423 23.0197 14.7588 23.3191C14.5033 23.4879 14.2116 23.594 13.9073 23.6288C13.603 23.6635 13.2948 23.6259 13.0078 23.519C12.5191 23.342 12.0885 23.0338 11.7635 22.6282C11.3643 22.2134 3.80691 14.4099 3.80691 14.4099C3.80691 14.4099 2.34767 13.1349 4.19111 11.3221C6.03455 9.50924 14.0679 1.75 14.0679 1.75L13.9898 1.88479Z" fill="white" />
		</g>
		<path d="M19.3105 18.4728L19.4115 7.00781L23.1752 10.8256L23.1791 10.8295C23.2253 10.8783 23.3536 11.0164 23.5346 11.2456L23.5731 11.2931C23.6837 11.4225 23.7845 11.5601 23.8745 11.7046C23.9918 11.9255 24.0939 12.1542 24.1799 12.389V12.3923V12.4001C24.1838 12.4112 24.191 12.4326 24.206 12.4743C24.5687 13.3801 23.3373 14.5678 23.3243 14.5795L19.3105 18.4715V18.4728Z" fill="#5AF043" />
		<path d="M13.6806 22.8788C13.4495 22.8797 13.2202 22.8385 13.004 22.757C12.5414 22.5927 12.1319 22.3063 11.8189 21.9281L11.7596 21.8662C11.6151 21.7138 10.5765 20.6407 8.05518 18.0374L13.0489 13.082L19.2812 18.2607L15.847 21.5895L15.8385 21.5979C15.4986 21.9404 15.1371 22.2608 14.7563 22.5571C14.4381 22.7698 14.0633 22.8819 13.6806 22.8788Z" fill="#29DBCC" />
		<path d="M8.05493 18.282L3.80414 13.8926C3.47242 13.572 3.2762 13.1364 3.25586 12.6755C3.27288 12.3165 3.36461 11.965 3.52516 11.6434C3.68572 11.3219 3.91158 11.0373 4.18832 10.808C4.78349 10.2219 6.08972 8.95283 8.07056 7.03125L8.05493 18.2801V18.282Z" fill="#FFE54F" />
		<path d="M8.0752 7.29142C10.5607 4.88473 13.207 2.32761 13.9591 1.60156L13.991 1.62761V1.63152L16.274 4.01086L19.3345 7.19766L19.4119 7.27645L8.0752 7.29142Z" fill="#64DFFF" />
		<path d="M8.07129 7.0918L19.412 7.07812L13.0475 13.3898L8.07129 7.0918Z" fill="#B1B1B1" />
		<path d="M8.05518 18.2821L13.0476 13.3215L8.07145 7.01953L8.05518 18.2821Z" fill="#FF9900" />
		<path d="M19.4112 7.00781L19.3103 18.5256L13.0474 13.3208L19.4112 7.00781Z" fill="#07A651" />
	</g>
	<defs>
		<filter id="filter0_d_761_11956" x="2.25586" y="13.9805" width="23" height="15.6641" filterUnits="userSpaceOnUse" color-interpolation-filters="sRGB">
			<feFlood flood-opacity="0" result="BackgroundImageFix" />
			<feColorMatrix in="SourceAlpha" type="matrix" values="0 0 0 0 0 0 0 0 0 0 0 0 0 0 0 0 0 0 127 0" result="hardAlpha" />
			<feOffset dy="1" />
			<feGaussianBlur stdDeviation="0.5" />
			<feColorMatrix type="matrix" values="0 0 0 0 0 0 0 0 0 0 0 0 0 0 0 0 0 0 0.161 0" />
			<feBlend mode="normal" in2="BackgroundImageFix" result="effect1_dropShadow_761_11956" />
			<feBlend mode="normal" in="SourceGraphic" in2="effect1_dropShadow_761_11956" result="shape" />
		</filter>
		<filter id="filter1_d_761_11956" x="2.25879" y="1.75" width="23.02" height="23.8906" filterUnits="userSpaceOnUse" color-interpolation-filters="sRGB">
			<feFlood flood-opacity="0" result="BackgroundImageFix" />
			<feColorMatrix in="SourceAlpha" type="matrix" values="0 0 0 0 0 0 0 0 0 0 0 0 0 0 0 0 0 0 127 0" result="hardAlpha" />
			<feOffset dy="1" />
			<feGaussianBlur stdDeviation="0.5" />
			<feColorMatrix type="matrix" values="0 0 0 0 0 0 0 0 0 0 0 0 0 0 0 0 0 0 0.161 0" />
			<feBlend mode="normal" in2="BackgroundImageFix" result="effect1_dropShadow_761_11956" />
			<feBlend mode="normal" in="SourceGraphic" in2="effect1_dropShadow_761_11956" result="shape" />
		</filter>
		<clipPath id="clip0_761_11956">
			<rect width="28" height="28" fill="white" transform="translate(0 0.855469)" />
		</clipPath>
	</defs>
</svg>
