<svg width="24" height="24" viewBox="0 0 24 24" fill="none" xmlns="http://www.w3.org/2000/svg">
<path d="M19.0771 4.92767C16.9951 2.84467 14.1551 1.79367 11.1731 2.03367C7.16414 2.35567 3.65014 5.14367 2.47414 8.98967C1.63414 11.7377 1.98714 14.6067 3.35514 16.9767L2.05914 21.2797C1.93514 21.6927 2.31214 22.0817 2.72914 21.9707L7.23314 20.7637C8.69214 21.5597 10.3341 21.9787 12.0061 21.9797H12.0101C16.2051 21.9797 20.0811 19.4137 21.4221 15.4387C22.7281 11.5627 21.7621 7.61567 19.0771 4.92767ZM16.8981 15.5537C16.6901 16.1367 15.6711 16.6987 15.2131 16.7397C14.7551 16.7817 14.3261 16.9467 12.2181 16.1157C9.68114 15.1157 8.07914 12.5147 7.95514 12.3487C7.83014 12.1817 6.93614 10.9957 6.93614 9.76767C6.93614 8.53967 7.58114 7.93567 7.81014 7.68667C8.03914 7.43667 8.30914 7.37467 8.47614 7.37467C8.64214 7.37467 8.80914 7.37467 8.95414 7.38067C9.13214 7.38767 9.32914 7.39667 9.51614 7.81167C9.73814 8.30567 10.2231 9.53967 10.2851 9.66467C10.3471 9.78967 10.3891 9.93567 10.3061 10.1017C10.2231 10.2677 10.1811 10.3717 10.0571 10.5177C9.93214 10.6637 9.79514 10.8427 9.68314 10.9547C9.55814 11.0787 9.42814 11.2147 9.57314 11.4637C9.71914 11.7137 10.2191 12.5307 10.9611 13.1917C11.9151 14.0417 12.7181 14.3047 12.9681 14.4307C13.2181 14.5557 13.3631 14.5347 13.5091 14.3677C13.6551 14.2017 14.1331 13.6397 14.2991 13.3897C14.4651 13.1397 14.6321 13.1817 14.8611 13.2647C15.0901 13.3477 16.3171 13.9517 16.5661 14.0767C16.8161 14.2017 16.9821 14.2637 17.0441 14.3677C17.1061 14.4707 17.1061 14.9707 16.8981 15.5537Z" fill="#F3F6FF"/>
</svg>
