<svg width="58" height="58" viewBox="0 0 58 58" fill="none" xmlns="http://www.w3.org/2000/svg">
	<path opacity="0.3" d="M12.0835 16.9168H45.9168V50.7501H12.0835V16.9168Z" fill="#F7D74E" />
	<path d="M12.0835 14.5H45.9168V19.3333H12.0835V14.5ZM26.5835 24.1667H31.4168V29H26.5835V24.1667ZM19.3335 24.1667H24.1668V29H19.3335V24.1667ZM26.5835 31.4167H31.4168V36.25H26.5835V31.4167ZM33.8335 24.1667H38.6668V29H33.8335V24.1667ZM33.8335 31.4167H38.6668V36.25H33.8335V31.4167ZM19.3335 31.4167H24.1668V36.25H19.3335V31.4167ZM26.5835 38.6667H38.6668V43.5H26.5835V38.6667ZM19.3335 38.6667H24.1668V43.5H19.3335V38.6667Z" fill="#F7D74E" />
	<path d="M14.5008 53.1665H43.5008C46.1712 53.1665 48.3341 51.0036 48.3341 48.3332V9.66655C48.3341 6.99614 46.1712 4.83322 43.5008 4.83322H14.5008C11.8304 4.83322 9.66748 6.99614 9.66748 9.66655V48.3332C9.66748 51.0036 11.8304 53.1665 14.5008 53.1665ZM43.5008 9.66655V48.3332H14.5008V9.66655H43.5008Z" fill="#F7D74E" />
</svg>
