<svg width="58" height="58" viewBox="0 0 58 58" fill="none" xmlns="http://www.w3.org/2000/svg">
	<path opacity="0.3" d="M7.25049 33.8333H50.7505V45.9167H7.25049V33.8333Z" fill="#6EDFCF" />
	<path d="M21.7505 7.25H36.2505V12.0833H21.7505V7.25ZM41.0838 29C40.4429 29 39.8282 29.2546 39.375 29.7078C38.9218 30.161 38.6672 30.7757 38.6672 31.4167C38.6672 32.0576 38.9218 32.6723 39.375 33.1255C39.8282 33.5787 40.4429 33.8333 41.0838 33.8333C41.7248 33.8333 42.3394 33.5787 42.7927 33.1255C43.2459 32.6723 43.5005 32.0576 43.5005 31.4167C43.5005 30.7757 43.2459 30.161 42.7927 29.7078C42.3394 29.2546 41.7248 29 41.0838 29ZM16.9172 29C16.2762 29 15.6615 29.2546 15.2083 29.7078C14.7551 30.161 14.5005 30.7757 14.5005 31.4167C14.5005 32.0576 14.7551 32.6723 15.2083 33.1255C15.6615 33.5787 16.2762 33.8333 16.9172 33.8333C17.5581 33.8333 18.1728 33.5787 18.626 33.1255C19.0792 32.6723 19.3338 32.0576 19.3338 31.4167C19.3338 30.7757 19.0792 30.161 18.626 29.7078C18.1728 29.2546 17.5581 29 16.9172 29Z" fill="#6EDFCF" />
	<path d="M48.334 9.66666H9.66732C6.9969 9.66666 4.83398 11.8296 4.83398 14.5V43.5C4.83398 46.1656 7.00173 48.3333 9.66732 48.3333H48.334C50.9996 48.3333 53.1673 46.1656 53.1673 43.5V14.5C53.1673 11.8296 51.0044 9.66666 48.334 9.66666ZM48.334 31.4167H9.66732V14.5H48.334V31.4167ZM48.334 43.5H9.66732V36.25H48.334V43.5Z" fill="#6EDFCF" />
</svg>
