<svg width="58" height="58" viewBox="0 0 58 58" fill="none" xmlns="http://www.w3.org/2000/svg">
	<g clip-path="url(#clip0_280_762)">
		<path d="M19.334 16.9167H24.1673V21.75H19.334V16.9167ZM29.0007 16.9167H41.084V21.75H29.0007V16.9167ZM19.334 26.5833H24.1673V31.4167H19.334V26.5833Z" fill="#3A8AF7" />
		<path d="M29.0007 45.9167H12.084C10.7524 45.9167 9.66732 44.8316 9.66732 43.5V41.0833H29.7112C30.2307 39.3361 31.0258 37.7097 32.0457 36.25H14.5007V12.0833H45.9173V29C47.5969 29 49.2185 29.2537 50.7507 29.7105V7.25H9.66732V36.25H4.83398V43.5C4.83398 47.4972 8.08682 50.75 12.084 50.75H29.7112C29.2544 49.2178 29.0007 47.5962 29.0007 45.9167Z" fill="#3A8AF7" />
		<path d="M29.0005 31.4167H37.2365C38.4327 30.6989 39.7184 30.1165 41.0838 29.7105V26.5833H29.0005V31.4167ZM37.3887 37.4148C35.0301 39.7735 33.8411 42.8523 33.8411 45.9408C33.8411 49.0293 35.0301 52.1106 37.3887 54.4668C42.1061 59.1842 49.7282 59.1818 54.4456 54.4644C59.1629 49.7471 59.1629 42.1249 54.4456 37.4076C49.7306 32.6999 42.1061 32.6999 37.3887 37.4148ZM48.3411 38.6667V43.5H53.1744V48.3406H48.3411V53.1739H43.5005V48.3406H38.6672V43.5H43.5005V38.6667H48.3411Z" fill="#3A8AF7" />
		<path opacity="0.3" d="M29.0005 45.9167C29.0005 36.5738 36.5743 29 45.9171 29C46.7388 29 47.5436 29.0797 48.3338 29.1933V9.66666H12.0838V38.6667H7.25049V43.5C7.25049 46.1704 9.4134 48.3333 12.0838 48.3333H29.1938C29.0802 47.5431 29.0005 46.7383 29.0005 45.9167Z" fill="#3A8AF7" />
	</g>
	<defs>
		<clipPath id="clip0_280_762">
			<rect width="58" height="58" fill="white" transform="translate(0.000488281)" />
		</clipPath>
	</defs>
</svg>
