<svg width="58" height="58" viewBox="0 0 58 58" fill="none" xmlns="http://www.w3.org/2000/svg">
<path d="M29.0006 29.2417L4.35059 16.9167L29.0006 4.59167L53.6506 16.9167L29.0006 29.2417ZM14.9839 16.9167L29.0006 23.925L43.0173 16.9167L29.0006 9.90834L14.9839 16.9167Z" fill="#5621CB"/>
<path opacity="0.3" d="M9.66699 16.9167L29.0003 7.25L48.3337 16.9167L29.0003 26.5833L9.66699 16.9167Z" fill="#5621CB"/>
<path d="M29.0006 41.325L4.35059 29L20.7839 20.7833L22.7173 25.1333L14.9839 29L29.0006 36.0083L43.0173 29L35.2839 25.1333L37.2173 20.7833L53.6506 29L29.0006 41.325Z" fill="#5621CB"/>
<path d="M29.0006 53.4083L4.35059 41.0833L20.7839 32.8667L22.7173 37.2167L14.9839 41.0833L29.0006 48.0917L43.0173 41.0833L35.2839 37.2167L37.2173 32.8667L53.6506 41.0833L29.0006 53.4083Z" fill="#5621CB"/>
<path opacity="0.3" d="M36.2503 35.0417L48.3337 41.0833L29.0003 50.75L9.66699 41.0833L21.7503 35.0417L29.0003 38.6667L36.2503 35.0417Z" fill="#5621CB"/>
</svg>
