<svg width="58" height="58" viewBox="0 0 58 58" fill="none" xmlns="http://www.w3.org/2000/svg">
<path d="M29.0005 26.5833C24.8922 26.5833 21.7505 23.4417 21.7505 19.3333C21.7505 15.225 24.8922 12.0833 29.0005 12.0833C33.1088 12.0833 36.2505 15.225 36.2505 19.3333C36.2505 23.4417 33.1088 26.5833 29.0005 26.5833ZM29.0005 16.9167C27.5505 16.9167 26.5838 17.8833 26.5838 19.3333C26.5838 20.7833 27.5505 21.75 29.0005 21.75C30.4505 21.75 31.4172 20.7833 31.4172 19.3333C31.4172 17.8833 30.4505 16.9167 29.0005 16.9167ZM43.5005 45.9167H14.5005V39.15C14.5005 34.5583 20.5422 31.4167 29.0005 31.4167C37.4588 31.4167 43.5005 34.5583 43.5005 39.15V45.9167ZM19.3338 41.0833H38.6672V39.15C38.6672 38.1833 35.2838 36.25 29.0005 36.25C22.7172 36.25 19.3338 38.425 19.3338 39.15V41.0833Z" fill="#EC8E65"/>
<path opacity="0.3" d="M29.0003 14.5C27.7184 14.5 26.4891 15.0092 25.5826 15.9157C24.6762 16.8221 24.167 18.0515 24.167 19.3333C24.167 20.6152 24.6762 21.8446 25.5826 22.751C26.4891 23.6574 27.7184 24.1667 29.0003 24.1667C30.2822 24.1667 31.5116 23.6574 32.418 22.751C33.3244 21.8446 33.8337 20.6152 33.8337 19.3333C33.8337 18.0515 33.3244 16.8221 32.418 15.9157C31.5116 15.0092 30.2822 14.5 29.0003 14.5ZM41.0837 43.5C41.0837 43.0167 41.0837 39.6333 41.0837 39.15C41.0837 36.0083 35.5253 33.8333 29.0003 33.8333C22.4753 33.8333 16.917 36.0083 16.917 39.15C16.917 39.6333 16.917 43.0167 16.917 43.5H41.0837Z" fill="#EC8E65"/>
<path d="M45.917 16.9167C44.6351 16.9167 43.4057 17.4259 42.4993 18.3323C41.5929 19.2387 41.0837 20.4681 41.0837 21.75C41.0837 23.0319 41.5929 24.2612 42.4993 25.1677C43.4057 26.0741 44.6351 26.5833 45.917 26.5833C47.1989 26.5833 48.4282 26.0741 49.3347 25.1677C50.2411 24.2612 50.7503 23.0319 50.7503 21.75C50.7503 20.4681 50.2411 19.2387 49.3347 18.3323C48.4282 17.4259 47.1989 16.9167 45.917 16.9167ZM55.5837 41.0833C55.5837 40.6 55.5837 37.2167 55.5837 36.7333C55.5837 33.5917 51.2337 31.4167 45.917 31.4167C40.6003 31.4167 36.2503 33.5917 36.2503 36.7333C36.2503 36.7333 41.0837 40.3583 41.0837 41.0833H55.5837ZM12.0837 16.9167C10.8018 16.9167 9.5724 17.4259 8.66598 18.3323C7.75955 19.2387 7.25033 20.4681 7.25033 21.75C7.25033 23.0319 7.75955 24.2612 8.66598 25.1677C9.5724 26.0741 10.8018 26.5833 12.0837 26.5833C13.3655 26.5833 14.5949 26.0741 15.5013 25.1677C16.4078 24.2612 16.917 23.0319 16.917 21.75C16.917 20.4681 16.4078 19.2387 15.5013 18.3323C14.5949 17.4259 13.3655 16.9167 12.0837 16.9167ZM16.917 41.0833C16.917 40.3583 21.7503 36.7333 21.7503 36.7333C21.7503 33.5917 17.4003 31.4167 12.0837 31.4167C6.76699 31.4167 2.41699 33.5917 2.41699 36.7333C2.41699 37.2167 2.41699 40.6 2.41699 41.0833H16.917Z" fill="#EC8E65"/>
</svg>
