<svg width="58" height="58" viewBox="0 0 58 58" fill="none" xmlns="http://www.w3.org/2000/svg">
	<path opacity="0.3" d="M7.25049 9.66666H50.7505V41.0833H7.25049V9.66666Z" fill="#70D495" />
	<path d="M4.83398 7.25V38.6667C4.83398 41.325 7.00898 43.5 9.66732 43.5H26.584V50.75H31.4173V43.5H48.334C50.9923 43.5 53.1673 41.325 53.1673 38.6667V7.25H4.83398ZM47.1256 38.6667H10.8757C10.1507 38.6667 9.66732 38.1833 9.66732 37.4583V12.0833H48.334V37.4583C48.334 38.1833 47.8506 38.6667 47.1256 38.6667Z" fill="#70D495" />
	<path d="M2.41699 7.25H55.5837V12.0833H2.41699V7.25ZM26.5837 32.3833L21.7503 27.55L18.1253 31.4167L14.5003 27.7917L21.7503 20.7833L26.5837 25.6167L36.2503 15.95L43.5003 22.9583L39.8753 26.5833L36.2503 22.7167L26.5837 32.3833Z" fill="#70D495" />
</svg>
