<svg width="58" height="58" viewBox="0 0 58 58" fill="none" xmlns="http://www.w3.org/2000/svg">
	<path d="M21.7505 16.9167H26.5838V21.75H21.7505V16.9167ZM21.7505 26.5833H26.5838V31.4167H21.7505V26.5833ZM21.7505 36.25H26.5838V41.0833H21.7505V36.25ZM31.4172 16.9167H36.2505V21.75H31.4172V16.9167ZM48.3338 29C47.0519 29 45.8226 29.5092 44.9161 30.4156C44.0097 31.3221 43.5005 32.5514 43.5005 33.8333C43.5005 35.1152 44.0097 36.3446 44.9161 37.251C45.8226 38.1574 47.0519 38.6667 48.3338 38.6667C49.6157 38.6667 50.8451 38.1574 51.7515 37.251C52.6579 36.3446 53.1672 35.1152 53.1672 33.8333C53.1672 32.5514 52.6579 31.3221 51.7515 30.4156C50.8451 29.5092 49.6157 29 48.3338 29ZM36.2505 29C34.9686 29 33.7392 29.5092 32.8328 30.4156C31.9264 31.3221 31.4172 32.5514 31.4172 33.8333C31.4172 35.1152 31.9264 36.3446 32.8328 37.251C33.7392 38.1574 34.9686 38.6667 36.2505 38.6667C37.5324 38.6667 38.7617 38.1574 39.6682 37.251C40.5746 36.3446 41.0838 35.1152 41.0838 33.8333C41.0838 32.5514 40.5746 31.3221 39.6682 30.4156C38.7617 29.5092 37.5324 29 36.2505 29ZM45.9172 50.75C45.9172 50.3706 45.9172 49.242 45.9172 48.8577C45.9172 45.6967 41.5309 43.5 36.2505 43.5C30.9701 43.5 26.5838 45.6967 26.5838 48.8577C26.5838 49.2396 26.5838 50.3682 26.5838 50.75H45.9172Z" fill="#E44870" />
	<path d="M16.9173 12.0833H41.084V25.5152C41.5045 25.7641 41.9129 26.0372 42.2923 26.3441C43.3436 25.4958 44.5785 24.882 45.9173 24.5219V12.0833C45.9173 9.41775 43.7496 7.25 41.084 7.25H16.9173C14.2517 7.25 12.084 9.41775 12.084 12.0833V50.75H21.7507V45.9167H16.9173V12.0833ZM58.0006 50.75C58.0006 50.3706 58.0006 49.242 58.0006 48.8577C58.0006 45.6967 53.6144 43.5 48.334 43.5C43.0536 43.5 38.6673 45.6967 38.6673 48.8577C38.6673 49.2396 38.6673 50.3682 38.6673 50.75H58.0006Z" fill="#E44870" />
	<path opacity="0.3" d="M28.7516 39.9982C27.391 38.338 26.5838 36.1968 26.5838 33.8333C26.5838 28.4127 30.8299 24.1667 36.2505 24.1667C38.556 24.1667 40.6488 24.9352 42.2922 26.2329C42.6691 25.9332 43.0776 25.6722 43.5005 25.4306V9.66666H14.5005V48.3333H21.7964C22.0284 44.6431 24.6553 41.6295 28.7516 39.9982Z" fill="#E44870" />
</svg>
