<svg width="52" height="52" viewBox="0 0 52 52" fill="none" xmlns="http://www.w3.org/2000/svg">
	<path opacity="0.3" d="M26 6.5C24.8507 6.5 23.7485 6.95655 22.9359 7.7692C22.1232 8.58186 21.6667 9.68406 21.6667 10.8333C21.6667 11.9826 22.1232 13.0848 22.9359 13.8975C23.7485 14.7101 24.8507 15.1667 26 15.1667C27.1493 15.1667 28.2515 14.7101 29.0641 13.8975C29.8768 13.0848 30.3333 11.9826 30.3333 10.8333C30.3333 9.68406 29.8768 8.58186 29.0641 7.7692C28.2515 6.95655 27.1493 6.5 26 6.5ZM26 36.8333C24.8507 36.8333 23.7485 37.2899 22.9359 38.1025C22.1232 38.9152 21.6667 40.0174 21.6667 41.1667C21.6667 42.3159 22.1232 43.4181 22.9359 44.2308C23.7485 45.0435 24.8507 45.5 26 45.5C27.1493 45.5 28.2515 45.0435 29.0641 44.2308C29.8768 43.4181 30.3333 42.3159 30.3333 41.1667C30.3333 40.0174 29.8768 38.9152 29.0641 38.1025C28.2515 37.2899 27.1493 36.8333 26 36.8333ZM36.8333 21.6667H45.5V30.3333H36.8333V21.6667ZM6.5 21.6667H15.1667V30.3333H6.5V21.6667Z" fill="#6EDFCF" />
	<path d="M13 21.6641H8.66663V12.9974C8.66663 10.6141 10.6166 8.66406 13 8.66406H21.6666V12.9974H13V21.6641ZM21.6666 43.3307H13C10.6166 43.3307 8.66663 41.3807 8.66663 38.9974V30.3307H13V38.9974H21.6666V43.3307ZM39 43.3307H30.3333V38.9974H39V30.3307H43.3333V38.9974C43.3333 41.3807 41.3833 43.3307 39 43.3307ZM43.3333 21.6641H39V12.9974H30.3333V8.66406H39C41.3833 8.66406 43.3333 10.6141 43.3333 12.9974V21.6641Z" fill="#6EDFCF" />
	<path d="M26 17.3359C22.3167 17.3359 19.5 14.5193 19.5 10.8359C19.5 7.1526 22.3167 4.33594 26 4.33594C29.6834 4.33594 32.5 7.1526 32.5 10.8359C32.5 14.5193 29.6834 17.3359 26 17.3359ZM26 8.66927C24.7 8.66927 23.8334 9.53594 23.8334 10.8359C23.8334 12.1359 24.7 13.0026 26 13.0026C27.3 13.0026 28.1667 12.1359 28.1667 10.8359C28.1667 9.53594 27.3 8.66927 26 8.66927ZM26 47.6693C22.3167 47.6693 19.5 44.8526 19.5 41.1693C19.5 37.4859 22.3167 34.6693 26 34.6693C29.6834 34.6693 32.5 37.4859 32.5 41.1693C32.5 44.8526 29.6834 47.6693 26 47.6693ZM26 39.0026C24.7 39.0026 23.8334 39.8693 23.8334 41.1693C23.8334 42.4693 24.7 43.3359 26 43.3359C27.3 43.3359 28.1667 42.4693 28.1667 41.1693C28.1667 39.8693 27.3 39.0026 26 39.0026ZM47.6667 32.5026H34.6667V19.5026H47.6667V32.5026ZM39 28.1693H43.3334V23.8359H39V28.1693ZM17.3334 32.5026H4.33337V19.5026H17.3334V32.5026ZM8.66671 28.1693H13V23.8359H8.66671V28.1693Z" fill="#6EDFCF" />
</svg>
