<svg width="52" height="52" viewBox="0 0 52 52" fill="none" xmlns="http://www.w3.org/2000/svg">
	<path opacity="0.3" d="M41.1666 43.3307H10.8333C9.53329 43.3307 8.66663 42.4641 8.66663 41.1641V10.8307C8.66663 9.53073 9.53329 8.66406 10.8333 8.66406H41.1666C42.4666 8.66406 43.3333 9.53073 43.3333 10.8307V41.1641C43.3333 42.4641 42.4666 43.3307 41.1666 43.3307Z" fill="#6EDFCF" />
	<path d="M41.1667 45.5H10.8333C8.45 45.5 6.5 43.55 6.5 41.1667V10.8333C6.5 8.45 8.45 6.5 10.8333 6.5H41.1667C43.55 6.5 45.5 8.45 45.5 10.8333V41.1667C45.5 43.55 43.55 45.5 41.1667 45.5ZM41.1667 41.1667V43.3333V41.1667ZM10.8333 10.8333V41.1667H41.1667V10.8333H10.8333Z" fill="#6EDFCF" />
	<path d="M22.9666 32.4974H29.0333L28.6 36.3974C28.6 36.6141 28.3833 36.8307 27.95 36.8307H23.8333C23.6166 36.8307 23.4 36.6141 23.1833 36.3974L22.9666 32.4974ZM29.0333 19.4974H22.9666L23.4 15.5974C23.4 15.3807 23.6166 15.1641 24.05 15.1641H28.1666C28.3833 15.1641 28.6 15.3807 28.8166 15.5974L29.0333 19.4974ZM33.15 25.3474L30.1166 20.1474L33.5833 18.6307C33.8 18.4141 34.2333 18.6307 34.2333 18.8474L36.1833 22.3141C36.4 22.5307 36.1833 22.9641 35.9666 22.9641L33.15 25.3474ZM18.85 26.6474L21.8833 31.8474L18.4166 33.3641C18.2 33.5807 17.7666 33.3641 17.7666 33.1474L15.8166 29.6807C15.6 29.4641 15.8166 29.0307 16.0333 29.0307L18.85 26.6474ZM21.8833 20.1474L18.85 25.3474L15.8166 22.9641C15.6 22.7474 15.6 22.5307 15.6 22.3141L17.55 18.8474C17.7666 18.6307 17.9833 18.4141 18.2 18.6307L21.8833 20.1474ZM30.1166 31.8474L33.15 26.6474L36.1833 29.0307C36.4 29.2474 36.4 29.4641 36.4 29.6807L34.45 33.1474C34.2333 33.3641 34.0166 33.5807 33.8 33.3641L30.1166 31.8474Z" fill="#6EDFCF" />
	<path d="M26 34.6693C30.7667 34.6693 34.6667 30.7693 34.6667 26.0026C34.6667 21.2359 30.7667 17.3359 26 17.3359C21.2334 17.3359 17.3334 21.2359 17.3334 26.0026C17.3334 30.7693 21.2334 34.6693 26 34.6693ZM26 21.6693C28.3834 21.6693 30.3334 23.6193 30.3334 26.0026C30.3334 28.3859 28.3834 30.3359 26 30.3359C23.6167 30.3359 21.6667 28.3859 21.6667 26.0026C21.6667 23.6193 23.6167 21.6693 26 21.6693Z" fill="#6EDFCF" />
</svg>
