<svg width="52" height="52" viewBox="0 0 52 52" fill="none" xmlns="http://www.w3.org/2000/svg">
	<path d="M13 2.16406H17.3333V10.8307H13V2.16406ZM34.6667 2.16406H39V10.8307H34.6667V2.16406Z" fill="#6EDFCF" />
	<path d="M41.1667 6.5H10.8333C8.45 6.5 6.5 8.45 6.5 10.8333V41.1667C6.5 43.55 8.45 45.5 10.8333 45.5H41.1667C43.55 45.5 45.5 43.55 45.5 41.1667V10.8333C45.5 8.45 43.55 6.5 41.1667 6.5ZM41.1667 41.1667H10.8333V19.5H41.1667V41.1667ZM41.1667 15.1667H10.8333V10.8333H41.1667V15.1667Z" fill="#6EDFCF" />
	<path d="M28.1666 28.1641H36.8333V36.8307H28.1666V28.1641Z" fill="#6EDFCF" />
	<path opacity="0.3" d="M8.66663 8.66406H43.3333V17.3307H8.66663V8.66406Z" fill="#6EDFCF" />
</svg>
