<svg width="61" height="60" viewBox="0 0 61 60" fill="none" xmlns="http://www.w3.org/2000/svg">
	<g clip-path="url(#clip0_350_343)">
		<path opacity="0.3" d="M47.8335 27.5C47.386 27.5 46.9585 27.575 46.526 27.6325C45.951 19.18 38.931 12.5 30.3335 12.5C23.5735 12.5 17.781 16.6275 15.3335 22.5C8.431 22.5 2.8335 28.0975 2.8335 35C2.8335 41.9025 8.431 47.5 15.3335 47.5C16.191 47.5 47.8335 47.5 47.8335 47.5C53.356 47.5 57.8335 43.0225 57.8335 37.5C57.8335 31.9775 53.356 27.5 47.8335 27.5Z" fill="#F7D74E" />
		<path d="M48.721 25.09C47.0185 16.4875 39.436 10 30.3335 10C23.1035 10 16.841 14.0975 13.7135 20.09C6.191 20.9 0.333496 27.265 0.333496 35C0.333496 43.285 7.0485 50 15.3335 50H47.8335C54.736 50 60.3335 44.4025 60.3335 37.5C60.3335 30.9 55.2035 25.5525 48.721 25.09ZM47.8335 45H15.3335C9.8185 45 5.3335 40.515 5.3335 35C5.3335 29.88 9.166 25.6075 14.246 25.0625L16.906 24.775L18.1435 22.4025C20.5285 17.8375 25.201 15 30.3335 15C36.876 15 42.546 19.6525 43.816 26.06L44.5585 29.805L48.366 30.0775C52.2735 30.355 55.3335 33.6175 55.3335 37.5C55.3335 41.635 51.9685 45 47.8335 45Z" fill="#F7D74E" />
	</g>
	<defs>
		<clipPath id="clip0_350_343">
			<rect width="60" height="60" fill="white" transform="translate(0.333496)" />
		</clipPath>
	</defs>
</svg>
