<svg width="60" height="60" viewBox="0 0 60 60" fill="none" xmlns="http://www.w3.org/2000/svg">
	<path d="M49.5 26C49.75 27.25 50 28.75 50 30C50 41 41 50 30 50C19 50 10 41 10 30C10 19 19 10 30 10C34 10 38 11.25 41 13.25L44.5 9.75C40.5 6.75 35.5 5 30 5C16.25 5 5 16.25 5 30C5 43.75 16.25 55 30 55C43.75 55 55 43.75 55 30C55 27.25 54.5 24.5 53.75 22L49.5 26Z" fill="#70D495" />
	<path d="M27.5 41L15.75 29.25L19.25 25.75L27.5 34L53.25 8.25L56.75 11.75L27.5 41Z" fill="#70D495" />
	<path opacity="0.3" d="M30 5C23.3696 5 17.0107 7.63392 12.3223 12.3223C7.63392 17.0107 5 23.3696 5 30C5 36.6304 7.63392 42.9893 12.3223 47.6777C17.0107 52.3661 23.3696 55 30 55C36.6304 55 42.9893 52.3661 47.6777 47.6777C52.3661 42.9893 55 36.6304 55 30C55 23.3696 52.3661 17.0107 47.6777 12.3223C42.9893 7.63392 36.6304 5 30 5Z" fill="#70D495" />
</svg>
