<svg width="61" height="60" viewBox="0 0 61 60" fill="none" xmlns="http://www.w3.org/2000/svg">
	<g clip-path="url(#clip0_350_633)">
		<path d="M35.919 47.675C35.7615 46.805 35.6665 45.915 35.6665 45C35.6665 43.245 35.984 41.5675 36.5415 40H10.6665V15H50.6665L50.669 30C52.374 30 54.0465 30.3075 55.6665 30.89V15C55.6665 12.2425 53.424 10 50.6665 10H10.6665C7.909 10 5.6665 12.2425 5.6665 15V40C5.6665 42.7575 7.909 45 10.6665 45H0.666504V50H33.5965L35.919 47.675ZM36.399 54.2675L42.6865 47.98L47.6865 52.98L41.399 59.2675C40.4215 60.245 38.839 60.245 37.864 59.2675L36.399 57.8025C35.4215 56.8275 35.4215 55.245 36.399 54.2675Z" fill="#5621CB" />
		<path d="M53.1665 47.5L48.1665 42.5L54.7665 35.9C53.514 35.3325 52.1315 35 50.6665 35C45.144 35 40.6665 39.4775 40.6665 45C40.6665 50.5225 45.144 55 50.6665 55C56.189 55 60.6665 50.5225 60.6665 45C60.6665 43.535 60.334 42.1525 59.7665 40.9L53.1665 47.5Z" fill="#5621CB" />
		<path opacity="0.3" d="M50.6665 30C51.519 30 52.3515 30.0875 53.1665 30.225V12.5H8.1665V42.5H35.8915C37.084 35.4075 43.2365 30 50.6665 30Z" fill="#5621CB" />
	</g>
	<defs>
		<clipPath id="clip0_350_633">
			<rect width="60" height="60" fill="white" transform="translate(0.666504)" />
		</clipPath>
	</defs>
</svg>
