<svg width="52" height="52" viewBox="0 0 52 52" fill="none" xmlns="http://www.w3.org/2000/svg">
	<path d="M39 26C39 27.0833 38.7833 28.3833 38.5667 29.25L42.0333 32.7167C42.9 30.55 43.3333 28.3833 43.3333 26C43.3333 23.6167 42.9 21.2333 42.0333 19.2833L38.5667 22.75C38.7833 23.6167 39 24.9167 39 26ZM22.75 13.4333C23.6167 13.2167 24.9167 13 26 13C27.0833 13 28.3833 13.2167 29.25 13.4333L32.7167 9.96667C30.55 9.1 28.3833 8.66667 26 8.66667C23.6167 8.66667 21.2333 9.1 19.2833 9.96667L22.75 13.4333ZM13 26C13 24.9167 13.2167 23.6167 13.4333 22.75L9.96667 19.2833C9.1 21.2333 8.66667 23.6167 8.66667 26C8.66667 28.3833 9.1 30.7667 9.96667 32.7167L13.4333 29.25C13.2167 28.3833 13 27.0833 13 26ZM29.25 38.5667C28.1667 38.7833 27.0833 39 26 39C24.9167 39 23.6167 38.7833 22.75 38.5667L19.2833 42.0333C21.45 42.9 23.6167 43.3333 26 43.3333C28.3833 43.3333 30.7667 42.9 32.7167 42.0333L29.25 38.5667ZM45.5 6.5H36.4L45.5 15.6V6.5ZM6.5 6.5V15.6L15.6 6.5H6.5ZM6.5 45.5H15.6L6.5 36.4V45.5ZM45.5 45.5V36.4L36.4 45.5H45.5Z" fill="#3A8AF7" />
	<path d="M31.0225 17.9141L41.8999 7.03621L44.9641 10.1003L34.0866 20.9781L31.0225 17.9141Z" fill="#3A8AF7" />
	<path d="M7.18896 10.2539L10.253 7.18972L21.1309 18.0672L18.0668 21.1314L7.18896 10.2539Z" fill="#3A8AF7" />
	<path d="M7.18909 41.7461L18.0666 30.8682L21.1307 33.9323L10.2533 44.8102L7.18909 41.7461Z" fill="#3A8AF7" />
	<path d="M31.0223 34.0859L34.0864 31.0218L44.9643 41.8992L41.9002 44.9634L31.0223 34.0859Z" fill="#3A8AF7" />
</svg>
