<svg width="80" height="80" viewBox="0 0 80 80" fill="none" xmlns="http://www.w3.org/2000/svg">
	<path fill-rule="evenodd" clip-rule="evenodd" d="M55.9842 17.6265C55.7457 17.6203 55.5064 17.6171 55.2664 17.6171C40.447 17.6171 28.4336 29.6306 28.4336 44.4499C28.4336 48.6467 29.3971 52.6185 31.115 56.1562C16.6274 55.7757 5 43.9121 5 29.3328C5 14.5134 17.0134 2.5 31.8328 2.5C42.4553 2.5 51.6361 8.67254 55.9842 17.6265Z" fill="#1033B1" />
	<path fill-rule="evenodd" clip-rule="evenodd" d="M25.4357 60.3183C25.6742 60.3246 25.9135 60.3278 26.1535 60.3278C40.9729 60.3278 52.9863 48.3143 52.9863 33.495C52.9863 29.2982 52.0228 25.3264 50.305 21.7888C64.7925 22.1693 76.4199 34.0329 76.4199 48.6122C76.4199 63.4315 64.4065 75.4449 49.5871 75.4449C38.9646 75.4449 29.7838 69.2724 25.4357 60.3183Z" fill="#8596CB" />
</svg>
