<svg width="52" height="52" viewBox="0 0 52 52" fill="none" xmlns="http://www.w3.org/2000/svg">
	<path opacity="0.13" d="M35.75 8.66797C31.6442 8.66797 28.0583 11.6493 26.0108 13.7878C23.9828 11.645 20.4143 8.66797 16.25 8.66797C10.8745 8.66797 6.5 13.0425 6.5 18.418C6.5 27.4313 21.645 39.5105 24.6805 41.8418L26 42.8536L27.3195 41.8396C30.355 39.5105 45.5 27.4313 45.5 18.418C45.5 13.0425 41.1255 8.66797 35.75 8.66797Z" fill="#E44870" />
	<path d="M35.75 6.5C29.4775 6.5 26 11.0283 26 11.0283C26 11.0283 22.5225 6.5 16.25 6.5C9.66771 6.5 4.33337 11.8343 4.33337 18.4167C4.33337 30.3333 26 45.5 26 45.5C26 45.5 47.6667 30.3333 47.6667 18.4167C47.6667 11.8343 42.3324 6.5 35.75 6.5ZM26 40.1223C18.4535 34.3308 8.66671 24.713 8.66671 18.4167C8.66671 14.235 12.0684 10.8333 16.25 10.8333C21.4544 10.8333 26 17.1318 26 17.1318C26 17.1318 30.6367 10.8333 35.75 10.8333C39.9317 10.8333 43.3334 14.235 43.3334 18.4167C43.3334 24.713 33.5465 34.3308 26 40.1223Z" fill="#E44870" />
</svg>
