<svg width="52" height="52" viewBox="0 0 52 52" fill="none" xmlns="http://www.w3.org/2000/svg">
	<path opacity="0.3" d="M30.3334 17.332H43.3334V32.4987H30.3334V17.332Z" fill="#E44870" />
	<path d="M6.5 38.9987H13V47.6654H6.5V38.9987ZM17.3333 30.332H23.8333V47.6654H17.3333V30.332ZM23.8333 21.6654V10.832H13L23.8333 21.6654Z" fill="#E44870" />
	<path d="M6.5 25.1016L18.4162 13.185L21.4804 16.249L9.56418 28.1656L6.5 25.1016Z" fill="#E44870" />
	<path d="M36.8334 4.33203C35.6841 4.33203 34.5819 4.78858 33.7692 5.60123C32.9566 6.41389 32.5 7.51609 32.5 8.66536C32.5 9.81464 32.9566 10.9168 33.7692 11.7295C34.5819 12.5422 35.6841 12.9987 36.8334 12.9987C37.9826 12.9987 39.0848 12.5422 39.8975 11.7295C40.7102 10.9168 41.1667 9.81464 41.1667 8.66536C41.1667 7.51609 40.7102 6.41389 39.8975 5.60123C39.0848 4.78858 37.9826 4.33203 36.8334 4.33203ZM39 32.4987H43.3334V47.6654H39V32.4987ZM30.3334 32.4987H34.6667V47.6654H30.3334V32.4987Z" fill="#E44870" />
	<path d="M41.1666 19.5013V30.3346H32.5V19.5013H41.1666ZM41.1666 15.168H32.5C30.1058 15.168 28.1666 17.1071 28.1666 19.5013V34.668H45.5V19.5013C45.5 17.1071 43.5608 15.168 41.1666 15.168Z" fill="#E44870" />
</svg>
