<svg width="28" height="28" viewBox="0 0 28 28" fill="none" xmlns="http://www.w3.org/2000/svg">
	<g clip-path="url(#clip0_676_1305)">
		<path d="M16.4512 22.2477C16.3777 21.8417 16.3333 21.4263 16.3333 20.9993C16.3333 20.1804 16.4815 19.3975 16.7417 18.666H4.66667V6.99935H23.3333L23.3345 13.9993C24.1302 13.9993 24.9107 14.1428 25.6667 14.4147V6.99935C25.6667 5.71252 24.6202 4.66602 23.3333 4.66602H4.66667C3.37983 4.66602 2.33333 5.71252 2.33333 6.99935V18.666C2.33333 19.9529 3.37983 20.9993 4.66667 20.9993H0V23.3327H15.3673L16.4512 22.2477ZM16.6752 25.3242L19.6093 22.39L21.9427 24.7234L19.0085 27.6575C18.5523 28.1137 17.8138 28.1137 17.3588 27.6575L16.6752 26.9739C16.219 26.5189 16.219 25.7804 16.6752 25.3242Z" fill="white" />
		<path d="M24.5 22.1673L22.1666 19.834L25.2466 16.754C24.6621 16.4892 24.017 16.334 23.3333 16.334C20.7561 16.334 18.6666 18.4235 18.6666 21.0007C18.6666 23.5778 20.7561 25.6673 23.3333 25.6673C25.9105 25.6673 28 23.5778 28 21.0007C28 20.317 27.8448 19.6718 27.58 19.0873L24.5 22.1673Z" fill="white" />
		<path opacity="0.3" d="M23.3333 14.0007C23.7312 14.0007 24.1197 14.0415 24.5 14.1057V5.83398H3.5V19.834H16.4383C16.9948 16.5242 19.866 14.0007 23.3333 14.0007Z" fill="white" />
	</g>
	<defs>
		<clipPath id="clip0_676_1305">
			<rect width="28" height="28" fill="white" />
		</clipPath>
	</defs>
</svg>
