<svg width="28" height="28" viewBox="0 0 28 28" fill="none" xmlns="http://www.w3.org/2000/svg">
	<path d="M23.1 12.134C23.2167 12.7173 23.3334 13.4173 23.3334 14.0007C23.3334 19.134 19.1334 23.334 14 23.334C8.86671 23.334 4.66671 19.134 4.66671 14.0007C4.66671 8.86732 8.86671 4.66732 14 4.66732C15.8667 4.66732 17.7334 5.25065 19.1334 6.18398L20.7667 4.55065C18.9 3.15065 16.5667 2.33398 14 2.33398C7.58337 2.33398 2.33337 7.58398 2.33337 14.0007C2.33337 20.4173 7.58337 25.6673 14 25.6673C20.4167 25.6673 25.6667 20.4173 25.6667 14.0007C25.6667 12.7173 25.4334 11.434 25.0834 10.2673L23.1 12.134Z" fill="white" />
	<path d="M12.8333 19.1329L7.34998 13.6496L8.98331 12.0163L12.8333 15.8663L24.85 3.84961L26.4833 5.48294L12.8333 19.1329Z" fill="white" />
	<path opacity="0.3" d="M14 2.33398C10.9058 2.33398 7.93839 3.56315 5.75046 5.75107C3.56254 7.939 2.33337 10.9065 2.33337 14.0007C2.33337 17.0948 3.56254 20.0623 5.75046 22.2502C7.93839 24.4382 10.9058 25.6673 14 25.6673C17.0942 25.6673 20.0617 24.4382 22.2496 22.2502C24.4375 20.0623 25.6667 17.0948 25.6667 14.0007C25.6667 10.9065 24.4375 7.939 22.2496 5.75107C20.0617 3.56315 17.0942 2.33398 14 2.33398Z" fill="white" />
</svg>
