<svg width="52" height="52" viewBox="0 0 52 52" fill="none" xmlns="http://www.w3.org/2000/svg">
	<path d="M32.5 4.33203V21.6654H28.1667L26 15.1654L17.3333 21.6654L15.1667 15.1654L6.5 21.6654V45.4987H45.5V4.33203H32.5ZM41.1667 41.1654H10.8333V23.832L12.9567 22.2395L13.2232 23.0369L15.1255 28.7395L19.9333 25.132L23.79 22.2395L24.0565 23.0369L25.0423 25.9987H28.1667H32.5H36.8333V21.6654V8.66536H41.1667V41.1654Z" fill="#5621CB" />
	<path d="M32.5 13H45.5V17.3333H32.5V13ZM19.5 30.3333H15.1666V34.6667H19.5V30.3333ZM28.1666 30.3333H23.8333V34.6667H28.1666V30.3333ZM36.8333 30.3333H32.5V34.6667H36.8333V30.3333ZM19.5 39H15.1666V43.3333H19.5V39ZM28.1666 39H23.8333V43.3333H28.1666V39ZM36.8333 39H32.5V43.3333H36.8333V39Z" fill="#5621CB" />
	<path opacity="0.3" d="M43.3333 23.8346V15.168H34.6666V23.8346H27.3151L26 19.5013L16.2066 23.8346L13 19.5013L8.66663 23.8346V43.3346H43.3333V23.8346Z" fill="#5621CB" />
</svg>
