<svg width="52" height="52" viewBox="0 0 52 52" fill="none" xmlns="http://www.w3.org/2000/svg">
	<path d="M43.3334 36.8346H17.2077C15.574 36.8346 14.066 35.9463 13.273 34.5185C12.48 33.0906 12.5255 31.34 13.3922 29.9533L15.9857 25.802L8.84871 8.67446L4.36154 8.69612L4.34204 4.36279L11.7325 4.32812L20.8455 26.2006L17.0669 32.2478L17.2077 32.5013H43.3334V36.8346ZM39 39.0013C37.8508 39.0013 36.7486 39.4578 35.9359 40.2705C35.1233 41.0832 34.6667 42.1854 34.6667 43.3346C34.6667 44.4839 35.1233 45.5861 35.9359 46.3988C36.7486 47.2114 37.8508 47.668 39 47.668C40.1493 47.668 41.2515 47.2114 42.0642 46.3988C42.8768 45.5861 43.3334 44.4839 43.3334 43.3346C43.3334 42.1854 42.8768 41.0832 42.0642 40.2705C41.2515 39.4578 40.1493 39.0013 39 39.0013ZM17.3334 39.0013C16.1841 39.0013 15.0819 39.4578 14.2692 40.2705C13.4566 41.0832 13 42.1854 13 43.3346C13 44.4839 13.4566 45.5861 14.2692 46.3988C15.0819 47.2114 16.1841 47.668 17.3334 47.668C18.4826 47.668 19.5848 47.2114 20.3975 46.3988C21.2102 45.5861 21.6667 44.4839 21.6667 43.3346C21.6667 42.1854 21.2102 41.0832 20.3975 40.2705C19.5848 39.4578 18.4826 39.0013 17.3334 39.0013Z" fill="#5621CB" />
	<path d="M35.7954 28.1666H18.0873V23.8332H35.7954L44.707 7.78906L48.4943 9.89506L39.5828 25.9392C38.8201 27.3129 37.3706 28.1666 35.7954 28.1666Z" fill="#5621CB" />
	<path d="M32.6625 6.5C30.4676 6.5 29.25 8.66667 29.25 8.66667C29.25 8.66667 28.0323 6.5 25.8375 6.5C23.5343 6.5 21.6666 8.27883 21.6666 10.4715C21.6666 13.7215 29.25 19.5 29.25 19.5C29.25 19.5 36.8333 13.7215 36.8333 10.4715C36.8333 8.27883 34.9656 6.5 32.6625 6.5Z" fill="#5621CB" />
	<path opacity="0.3" d="M13 8.66797H44.9843L37.1778 24.8876C36.7943 25.5745 36.0685 26.0013 35.282 26.0013H17.5738L13 8.66797Z" fill="#5621CB" />
</svg>
