<svg width="52" height="52" viewBox="0 0 52 52" fill="none" xmlns="http://www.w3.org/2000/svg">
	<path d="M26 4.33203C24.8508 4.33203 23.7486 4.78858 22.9359 5.60123C22.1233 6.41389 21.6667 7.51609 21.6667 8.66536C21.6667 9.81464 22.1233 10.9168 22.9359 11.7295C23.7486 12.5422 24.8508 12.9987 26 12.9987C27.1493 12.9987 28.2515 12.5422 29.0642 11.7295C29.8768 10.9168 30.3334 9.81464 30.3334 8.66536C30.3334 7.51609 29.8768 6.41389 29.0642 5.60123C28.2515 4.78858 27.1493 4.33203 26 4.33203ZM8.66671 12.9987C7.51744 12.9987 6.41524 13.4552 5.60258 14.2679C4.78992 15.0806 4.33337 16.1828 4.33337 17.332C4.33337 18.4813 4.78992 19.5835 5.60258 20.3962C6.41524 21.2088 7.51744 21.6654 8.66671 21.6654C9.81598 21.6654 10.9182 21.2088 11.7308 20.3962C12.5435 19.5835 13 18.4813 13 17.332C13 16.1828 12.5435 15.0806 11.7308 14.2679C10.9182 13.4552 9.81598 12.9987 8.66671 12.9987ZM8.66671 30.332C7.51744 30.332 6.41524 30.7886 5.60258 31.6012C4.78992 32.4139 4.33337 33.5161 4.33337 34.6654C4.33337 35.8146 4.78992 36.9168 5.60258 37.7295C6.41524 38.5421 7.51744 38.9987 8.66671 38.9987C9.81598 38.9987 10.9182 38.5421 11.7308 37.7295C12.5435 36.9168 13 35.8146 13 34.6654C13 33.5161 12.5435 32.4139 11.7308 31.6012C10.9182 30.7886 9.81598 30.332 8.66671 30.332ZM43.3334 12.9987C42.1841 12.9987 41.0819 13.4552 40.2692 14.2679C39.4566 15.0806 39 16.1828 39 17.332C39 18.4813 39.4566 19.5835 40.2692 20.3962C41.0819 21.2088 42.1841 21.6654 43.3334 21.6654C44.4826 21.6654 45.5848 21.2088 46.3975 20.3962C47.2102 19.5835 47.6667 18.4813 47.6667 17.332C47.6667 16.1828 47.2102 15.0806 46.3975 14.2679C45.5848 13.4552 44.4826 12.9987 43.3334 12.9987ZM43.3334 30.332C42.1841 30.332 41.0819 30.7886 40.2692 31.6012C39.4566 32.4139 39 33.5161 39 34.6654C39 35.8146 39.4566 36.9168 40.2692 37.7295C41.0819 38.5421 42.1841 38.9987 43.3334 38.9987C44.4826 38.9987 45.5848 38.5421 46.3975 37.7295C47.2102 36.9168 47.6667 35.8146 47.6667 34.6654C47.6667 33.5161 47.2102 32.4139 46.3975 31.6012C45.5848 30.7886 44.4826 30.332 43.3334 30.332ZM26 21.6654C24.8508 21.6654 23.7486 22.1219 22.9359 22.9346C22.1233 23.7472 21.6667 24.8494 21.6667 25.9987C21.6667 27.148 22.1233 28.2502 22.9359 29.0628C23.7486 29.8755 24.8508 30.332 26 30.332C27.1493 30.332 28.2515 29.8755 29.0642 29.0628C29.8768 28.2502 30.3334 27.148 30.3334 25.9987C30.3334 24.8494 29.8768 23.7472 29.0642 22.9346C28.2515 22.1219 27.1493 21.6654 26 21.6654ZM26 38.9987C24.8508 38.9987 23.7486 39.4552 22.9359 40.2679C22.1233 41.0806 21.6667 42.1828 21.6667 43.332C21.6667 44.4813 22.1233 45.5835 22.9359 46.3962C23.7486 47.2088 24.8508 47.6654 26 47.6654C27.1493 47.6654 28.2515 47.2088 29.0642 46.3962C29.8768 45.5835 30.3334 44.4813 30.3334 43.332C30.3334 42.1828 29.8768 41.0806 29.0642 40.2679C28.2515 39.4552 27.1493 38.9987 26 38.9987Z" fill="#5621CB" />
	<path d="M26 8.66797L8.66663 17.3346M26 26.0013L43.3333 17.3346M8.66663 17.3346L26 26.0013V43.3346L8.66663 34.668M43.3333 34.668L26 43.3346" stroke="#5621CB" stroke-width="2" stroke-miterlimit="10" />
</svg>
